<svg width="167" height="96" viewBox="0 0 167 96" fill="none" xmlns="http://www.w3.org/2000/svg">
<path fill-rule="evenodd" clip-rule="evenodd" d="M165.323 66.5751C162.45 68.3275 154.822 72.0158 150.855 73.5718C141.494 77.2427 131.428 78.6526 114.58 78.6526C105.879 78.6526 98.0494 78.0101 81.3576 75.9256C69.4178 74.4345 58.8338 73.9314 50.8512 74.4749C37.9426 75.3538 29.6916 77.7404 18.3107 83.8865C13.6681 86.3938 12.4587 87.0851 8.15573 89.6927C5.83361 91.1001 0 95.5958 0 95.9778C0 96.1172 0.795681 95.585 1.76864 94.7951C3.77657 93.1642 7.3613 91.0339 11.028 89.2915C21.3669 84.3788 24.8496 83.0692 31.2113 81.7017C34.1244 81.0754 36.6579 80.9414 45.5686 80.9414C52.0243 80.9414 58.0668 81.1595 60.55 81.4816C62.8388 81.7787 68.6442 82.5615 73.4507 83.2211C78.2573 83.8807 84.2498 84.6652 86.7675 84.9644C92.7959 85.6806 112.909 85.6843 118.187 84.9702C134.084 82.8187 143.643 79.8757 154.6 73.7603C160.572 70.4274 167.699 65.7394 166.773 65.7536C166.716 65.7544 166.063 66.1239 165.323 66.5751Z" fill="#CDD0D0"/>
<path fill-rule="evenodd" clip-rule="evenodd" d="M78.0795 42.1353C77.4695 44.3871 77.3284 50.0235 77.7953 53.4954C78.7446 60.5513 80.3954 64.8218 83.3122 67.7678C84.7879 69.258 85.2698 69.4973 86.7988 69.4973C88.5445 69.4973 88.5795 69.4694 88.9794 67.7286C89.2033 66.7561 90.808 60.9974 92.5458 54.932C94.2837 48.8666 95.8775 43.2951 96.0877 42.5515C96.4684 41.2023 96.4655 41.199 94.9474 41.2023L93.426 41.2057L89.9203 53.5828C87.9923 60.3902 86.3372 66.1094 86.2419 66.2925C85.5328 67.6554 82.755 62.0444 81.5436 56.8018C80.8212 53.6752 80.6917 51.9756 80.8045 47.1042L80.9414 41.1977L79.6376 41.1986C78.638 41.199 78.2743 41.4179 78.0795 42.1353ZM98.3715 45.1283C97.9441 46.2419 98.4148 47.2311 99.441 47.3768C100.749 47.5624 101.679 46.3963 101.094 45.3031C100.602 44.3842 98.7036 44.2623 98.3715 45.1283ZM103.704 55.2441C103.858 66.6254 104.017 67.5942 105.945 68.8577C107.347 69.7761 109.983 70.0761 111.694 69.5114C112.93 69.1036 113.193 68.8165 113.193 67.878C113.193 66.749 113.173 66.7407 110.799 66.9121C108.734 67.0615 108.291 66.9596 107.574 66.1677C106.826 65.3416 106.743 64.6641 106.743 59.3627V53.4755L109.136 53.3506C111.47 53.2291 111.529 53.1962 111.529 52.0189C111.529 50.8416 111.47 50.8088 109.136 50.6872L106.743 50.5624L106.62 47.5453L106.498 44.5282H105.029H103.56L103.704 55.2441ZM116.626 50.9748C115.586 51.4272 115.274 51.8183 115.274 52.6714C115.274 53.6261 115.405 53.7422 116.21 53.5046C116.725 53.3527 118.207 53.1192 119.504 52.9852C122.554 52.6706 125.273 53.8629 126.263 55.9495C127.443 58.4351 127.352 58.5034 122.869 58.4855C118.256 58.4672 116.626 59.1035 114.963 61.5704C113.73 63.4011 113.682 66.4519 114.864 67.9546C117.195 70.918 122.784 70.1943 125.868 66.5293L126.926 65.2721V66.7261C126.926 68.9134 127.287 69.4973 128.635 69.4973H129.839V63.0336C129.839 54.6515 129.204 53.0734 125.053 51.1458C123.036 50.2087 118.596 50.1184 116.626 50.9748ZM137.925 51.1421C135.918 52.0535 133.729 54.5608 133.162 56.5966C132.605 58.6012 132.681 62.3299 133.317 64.1077C133.935 65.8352 135.846 68.1028 137.335 68.8747C140.074 70.2942 145.707 69.9322 147.916 68.1943C149.134 67.2363 149.169 67.074 148.382 66.0362C147.831 65.3087 147.746 65.3125 146.124 66.1402C142.124 68.1806 137.147 66.6379 136.26 63.0827C135.99 62.002 136.043 61.9058 136.747 62.2017C142.875 64.774 148.569 62.0332 148.564 56.5134C148.56 51.6814 142.961 48.8549 137.925 51.1421ZM98.2117 60.1339V69.4973H99.6682H101.125V60.1339V50.7705H99.6682H98.2117V60.1339ZM139.134 53.7102C137.446 54.5454 136.081 56.4713 136.081 58.0182C136.081 58.8779 138.278 60.2179 140.227 60.5471C144.576 61.282 147.362 56.9932 144.437 54.0676C142.975 52.6065 141.556 52.5108 139.134 53.7102ZM120.684 61.0523C118.906 61.3894 116.938 63.1618 116.945 64.4206C116.953 65.8901 117.336 66.4394 118.715 66.9642C120.739 67.7336 124.944 66.3166 126.274 64.4165C126.957 63.4427 127.149 61.7685 126.614 61.4589C126.068 61.1426 121.765 60.8476 120.684 61.0523Z" fill="#CDD0D0"/>
<path fill-rule="evenodd" clip-rule="evenodd" d="M33.5002 35.685C28.0453 55.3119 23.498 71.7911 23.3948 72.3063C23.2104 73.2268 23.2766 73.2426 27.3299 73.2426H31.4519L33.836 64.6075C35.1469 59.858 36.4132 55.2674 36.6496 54.406L37.0799 52.8396L50.4413 52.9494L63.8026 53.0593L66.575 63.0469L69.347 73.0346L73.5764 73.1532C76.879 73.2455 77.7641 73.1544 77.6176 72.737C77.4333 72.2106 61.9258 16.2299 61.9258 16.2299L57.0127 0C57.0127 0 55.0664 0 50.1645 0H43.4183L33.5002 35.685ZM50.2037 5.82612C50.073 6.16944 48.5628 11.5066 46.8478 17.6864C45.1333 23.8663 42.6925 32.6304 41.4241 37.1623C40.1561 41.6942 39.1182 45.4862 39.1182 45.5894C39.1182 45.6922 44.1745 45.7766 50.3543 45.7766C56.5341 45.7766 61.5904 45.6272 61.5904 45.445C61.5904 45.1574 59.8975 39.0371 52.0118 10.8199C51.1483 7.73001 50.3347 5.48279 50.2037 5.82612ZM76.5747 17.7251C73.2859 19.1513 71.5443 22.014 71.253 26.4726C70.9451 31.1889 72.3109 34.2522 75.4316 35.8444C78.0625 37.1864 80.4687 36.7611 82.4866 34.598L84.0626 32.908V39.3687V45.8295L85.4151 45.6988L86.7675 45.5686L86.8782 33.5306L86.9885 21.4925L85.9789 19.9665C85.4234 19.1276 84.3156 18.1305 83.5166 17.7514C81.7209 16.8995 78.5069 16.887 76.5747 17.7251ZM112.049 17.557C110.871 17.9557 110.696 18.2016 110.696 19.4559C110.696 20.6652 110.813 20.8483 111.425 20.5957C114.372 19.3785 117.724 19.4089 119.861 20.6715C121.15 21.433 122.348 23.2583 122.348 24.461C122.348 25.2283 122.116 25.2687 118.707 25.0927C115.491 24.9266 114.848 25.0178 113.196 25.8734C110.729 27.1518 109.448 29.1073 109.448 31.5963C109.448 33.7798 110.193 35.0911 111.949 35.9996C114.601 37.3708 118.63 36.2497 121.082 33.4573L122.348 32.0145V34.1098V36.2052H124.05H125.751L125.61 29.6508C125.448 22.0939 124.979 20.649 122.006 18.5487C120.485 17.4738 119.874 17.3161 116.841 17.2145C114.949 17.1508 112.793 17.3048 112.049 17.557ZM134.422 17.9719C129.316 20.6057 127.905 28.4806 131.657 33.4003C134.424 37.0283 140.627 37.6713 145.029 34.7865C146.037 34.1265 146.053 34.0516 145.437 32.8601L144.796 31.6208L143.551 32.5414C142.659 33.2006 141.57 33.5031 139.714 33.6075C136.705 33.7769 134.955 32.9455 133.582 30.6949C132.292 28.5784 132.505 28.2267 134.521 29.1418C136.609 30.0898 139.715 30.1947 141.658 29.3828C145.034 27.9724 146.674 23.2275 144.754 20.4297C143.148 18.0901 141.777 17.326 138.886 17.1592C136.791 17.0381 135.929 17.195 134.422 17.9719ZM92.8421 19.0639C91.6419 21.416 90.721 25.3848 90.721 28.2034C90.721 32.1023 92.2179 34.8402 94.9732 35.9809C97.8725 37.181 101.214 36.6846 104.573 34.5551L106.535 33.3104V25.3944V17.4784H104.87H103.206L103.199 24.4489C103.196 28.2829 103.055 31.6175 102.887 31.8597C101.622 33.6804 97.6291 34.3362 95.7635 33.0295C92.9395 31.052 92.984 25.3378 95.8671 19.6631L96.9774 17.4784H95.314C93.8067 17.4784 93.5754 17.6265 92.8421 19.0639ZM77.8286 20.2882C73.8731 22.2753 72.7973 28.9591 75.8902 32.3337C76.9389 33.4785 77.5448 33.7915 78.7117 33.7915C82.4263 33.7915 84.0626 31.3736 84.0626 25.8854C84.0626 22.3182 83.5844 21.227 81.5611 20.1808C80.0271 19.3877 79.596 19.4001 77.8286 20.2882ZM136.106 20.4751C134.876 21.1114 133.987 21.962 133.453 23.014L132.648 24.5966L133.576 25.5841C134.949 27.0461 138.067 27.6907 139.953 26.9029C142.682 25.7627 143.365 22.7635 141.332 20.8533C139.89 19.4979 138.225 19.3777 136.106 20.4751ZM116.314 27.8405C112.703 28.7469 111.217 31.2958 113.235 33.1223C114.945 34.6691 120.06 33.4615 121.697 31.1244C122.379 30.1502 122.571 28.4793 122.036 28.1622C121.361 27.7619 117.494 27.5442 116.314 27.8405Z" fill="#CDD0D0"/>
</svg>
