<svg width="227" height="96" viewBox="0 0 227 96" fill="none" xmlns="http://www.w3.org/2000/svg">
<path fill-rule="evenodd" clip-rule="evenodd" d="M95.3885 0.611472C70.9296 0.611472 46.4708 0.611472 22.0119 0.611472C14.9724 0.410909 8.04243 0.614529 1.22182 1.22294C1.01802 1.22294 0.814155 1.22294 0.610352 1.22294C16.1976 0.407852 31.9942 0 47.9994 0C63.8989 0 79.6957 0.20362 95.3885 0.611472Z" fill="#CDD0D0"/>
<path fill-rule="evenodd" clip-rule="evenodd" d="M22.0122 0.611437C22.3734 1.00951 22.781 1.41736 23.2352 1.83438C21.8521 2.35108 21.4444 3.16617 22.0122 4.28027C21.2615 5.39376 20.2424 6.00523 18.9549 6.11469C19.9156 2.00131 18.4889 0.981989 14.6746 3.05733C15.3411 3.97637 16.0545 4.17999 16.8147 3.6688C17.9591 5.6995 17.2457 6.5152 14.6746 6.11469C14.6746 5.50321 14.6746 4.89174 14.6746 4.28027C11.4735 4.18427 8.21233 4.08215 4.891 3.97453C3.44835 3.21508 2.22541 2.29788 1.22217 1.22291C8.04277 0.614494 14.9728 0.410874 22.0122 0.611437Z" fill="#CDD0D0"/>
<path fill-rule="evenodd" clip-rule="evenodd" d="M22.012 0.61145C46.4708 0.61145 70.9297 0.61145 95.3886 0.61145C95.3886 0.81507 95.3886 1.0193 95.3886 1.22292C94.3693 1.22292 93.3506 1.22292 92.3313 1.22292C89.0703 1.22292 85.8087 1.22292 82.5477 1.22292C67.6687 1.22292 52.7892 1.22292 37.9102 1.22292C37.9102 1.83439 37.9102 2.44587 37.9102 3.05734C38.7253 3.05734 39.541 3.05734 40.3561 3.05734C40.553 4.41603 40.1452 5.53747 39.1332 6.42044C39.7447 6.62406 40.3561 6.82829 40.9676 7.03191C39.8333 9.45945 38.3046 9.76519 36.3816 7.94912C35.1366 8.31722 34.0152 8.92869 33.0185 9.78353C31.4562 9.01308 29.9275 8.19737 28.4324 7.33764C28.0142 8.12277 28.1163 8.83636 28.7382 9.4778C26.4708 9.91011 24.3308 10.2158 22.3177 10.395C19.7067 9.76213 17.1589 8.94704 14.6743 7.94912C13.1591 9.36345 11.3247 10.1785 9.17105 10.395C7.255 10.458 5.31871 10.2544 3.36206 9.78353C2.33412 9.84957 1.62071 10.2574 1.22191 11.0065C1.22191 12.2294 1.22191 13.4524 1.22191 14.6753C0.615576 10.3045 0.411711 5.82058 0.610439 1.22292C0.814243 1.22292 1.01811 1.22292 1.22191 1.22292C2.22515 2.29789 3.4481 3.2151 4.89074 3.97455C8.21208 4.08217 11.4732 4.18428 14.6743 4.28028C14.6743 4.89176 14.6743 5.50323 14.6743 6.1147C17.2455 6.51521 17.9588 5.69951 16.8145 3.66881C16.0542 4.18 15.3409 3.97638 14.6743 3.05734C18.4886 0.982002 19.9153 2.00133 18.9546 6.1147C20.2421 6.00525 21.2613 5.39377 22.012 4.28028C21.4442 3.16618 21.8518 2.35109 23.2349 1.83439C22.7808 1.41737 22.3731 1.00952 22.012 0.61145Z" fill="#CDD0D0"/>
<path fill-rule="evenodd" clip-rule="evenodd" d="M82.548 1.2229C82.7008 3.06037 81.8857 4.1812 80.1021 4.586C80.5099 4.78962 80.9172 4.99385 81.325 5.19747C80.1412 5.6946 78.9183 6.00033 77.6562 6.11468C77.6562 6.72615 77.6562 7.33762 77.6562 7.94909C74.7621 7.77972 71.9083 7.98395 69.0956 8.56057C69.1023 7.98517 68.7966 7.57732 68.1784 7.33762C66.27 7.97111 64.334 8.07322 62.3694 7.64336C63.4706 7.44952 63.6743 7.04167 62.9808 6.42041C62.1902 6.12079 61.3745 6.01868 60.535 6.11468C60.2268 8.45967 59.6153 8.45967 58.7005 6.11468C58.2413 6.65033 57.9356 7.2618 57.7833 7.94909C57.0532 6.71086 56.136 6.50663 55.0317 7.33762C53.7281 5.98566 52.8108 6.3929 52.2801 8.56057C51.5157 7.90446 50.7 7.90446 49.8342 8.56057C48.418 8.29519 47.1951 7.68371 46.1654 6.72615C44.7327 7.8537 43.4076 9.07665 42.1908 10.395C40.804 9.7566 39.3774 9.65449 37.9105 10.0892C38.7256 10.4971 39.5413 10.9043 40.3564 11.3122C38.1691 12.3107 36.1311 12.2086 34.2417 11.0065C33.7873 11.8674 33.2774 12.6825 32.713 13.4523C32.1627 12.2918 31.4497 11.2731 30.5728 10.395C30.1497 10.716 29.844 11.1239 29.6556 11.6179C27.787 10.0856 25.8504 10.0856 23.8466 11.6179C21.6099 11.4907 19.3678 11.2871 17.1204 11.0065C15.8467 11.8986 14.5219 12.7137 13.1459 13.4523C12.9421 13.0445 12.7382 12.6372 12.5344 12.2294C11.6059 11.9585 10.8925 12.3664 10.3942 13.4523C9.32466 12.2104 8.10172 12.0062 6.72542 12.8409C4.89791 12.6489 3.47116 11.8332 2.44511 10.395C2.02717 10.6169 1.61956 10.8206 1.22217 11.0065C1.62097 10.2574 2.33437 9.84955 3.36232 9.78351C5.31897 10.2543 7.25526 10.458 9.1713 10.395C11.325 10.1785 13.1594 9.36343 14.6746 7.94909C17.1591 8.94702 19.707 9.76211 22.318 10.395C24.331 10.2158 26.4711 9.91008 28.7384 9.47777C28.1165 8.83634 28.0144 8.12275 28.4327 7.33762C29.9277 8.19735 31.4564 9.01305 33.0187 9.78351C34.0154 8.92867 35.1369 8.3172 36.3818 7.94909C38.3049 9.76517 39.8336 9.45943 40.9679 7.03189C40.3564 6.82826 39.7449 6.62403 39.1334 6.42041C40.1454 5.53745 40.5533 4.41601 40.3564 3.05732C39.5413 3.05732 38.7256 3.05732 37.9105 3.05732C37.9105 2.44584 37.9105 1.83437 37.9105 1.2229C52.7894 1.2229 67.669 1.2229 82.548 1.2229Z" fill="#CDD0D0"/>
<path fill-rule="evenodd" clip-rule="evenodd" d="M92.3315 1.2229C93.3508 1.2229 94.3695 1.2229 95.3889 1.2229C95.3889 2.03799 95.3889 2.8537 95.3889 3.66879C93.3973 6.44976 91.2572 9.50712 88.9684 12.8409C86.9255 13.8926 84.7853 14.8098 82.548 15.5925C83.2793 15.9924 83.2793 16.2981 82.548 16.5097C80.302 15.7454 78.2634 16.1532 76.4332 17.7326C76.1293 16.6834 75.9251 15.664 75.8218 14.6753C75.4139 15.0831 75.0067 15.4904 74.5988 15.8982C73.596 14.468 72.3731 13.9586 70.93 14.3695C71.7787 13.826 71.6772 13.5202 70.6242 13.4523C65.7563 15.387 61.0682 15.7949 56.5604 14.6753C55.5301 16.1966 54.7144 15.993 54.1145 14.0638C53.0664 14.9352 52.2513 14.7315 51.6686 13.4523C49.7822 14.0222 47.8457 14.4301 45.8596 14.6753C45.8596 15.2868 45.8596 15.8982 45.8596 16.5097C42.5699 16.6173 39.3089 16.4131 36.0761 15.8982C36.0761 16.5097 36.0761 17.1212 36.0761 17.7326C33.9041 17.7339 31.6619 17.5302 29.3499 17.1212C28.4877 17.3462 27.8762 17.8556 27.5155 18.6499C25.1815 19.2754 23.0414 18.9697 21.095 17.7326C18.7766 19.9596 16.5345 19.9596 14.3688 17.7326C12.3821 18.8266 10.3438 19.0302 8.2541 18.3441C7.50645 19.8636 6.58924 19.9657 5.50247 18.6499C6.41528 17.943 6.31335 17.433 5.19674 17.1212C3.80649 17.8476 2.48162 18.0512 1.22217 17.7326C1.22217 16.9176 1.22217 16.1019 1.22217 15.2868C3.0457 15.5289 4.67631 15.121 6.11394 14.0638C8.44133 15.6218 10.7853 15.6218 13.1459 14.0638C13.4411 14.6435 13.543 15.255 13.4516 15.8982C15.316 15.3742 17.1505 15.3742 18.9549 15.8982C19.7824 14.8691 20.8016 14.054 22.0122 13.4523C22.4971 13.9752 22.2933 14.4851 21.4007 14.981C23.9396 15.5472 26.4876 16.0572 29.0441 16.5097C30.5031 15.694 31.9303 14.8789 33.3245 14.0638C34.1817 15.576 35.0989 15.576 36.0761 14.0638C36.4992 14.3848 36.805 14.7927 36.9933 15.2868C38.053 14.0014 39.2759 13.7978 40.6621 14.6753C41.6698 13.9311 42.7907 13.4218 44.0252 13.1466C49.3328 12.0539 54.6318 10.9325 59.9235 9.78351C64.0295 12.4532 68.4113 12.861 73.0701 11.0065C76.4669 13.0586 78.3013 12.2435 78.5734 8.56057C79.2986 9.89174 80.4194 10.5032 81.9365 10.395C81.8044 9.06136 82.3138 8.04265 83.4652 7.33762C83.3043 8.22487 83.4065 9.03996 83.7709 9.78351C84.8532 8.97637 85.0568 8.05916 84.3824 7.03189C86.1709 5.63589 87.8011 4.10721 89.2741 2.44584C90.7667 3.22792 91.7861 2.82068 92.3315 1.2229Z" fill="#CDD0D0"/>
<path fill-rule="evenodd" clip-rule="evenodd" d="M82.548 1.2229C85.8089 1.2229 89.0705 1.2229 92.3315 1.2229C91.7861 2.82068 90.7668 3.22792 89.2742 2.44584C87.8011 4.10721 86.1709 5.63589 84.3824 7.03189C85.0568 8.05916 84.8532 8.97637 83.7709 9.78351C83.4065 9.03996 83.3044 8.22487 83.4652 7.33762C82.3138 8.04265 81.8044 9.06136 81.9365 10.395C80.4194 10.5032 79.2986 9.89174 78.5734 8.56057C78.3013 12.2435 76.4669 13.0586 73.0701 11.0065C68.4113 12.861 64.0295 12.4532 59.9235 9.78351C54.6318 10.9325 49.3328 12.0539 44.0252 13.1466C42.7907 13.4218 41.6698 13.9311 40.6621 14.6753C39.2759 13.7978 38.053 14.0014 36.9933 15.2868C36.805 14.7927 36.4992 14.3848 36.0761 14.0638C35.0989 15.576 34.1817 15.576 33.3245 14.0638C31.9303 14.8789 30.5031 15.694 29.0441 16.5097C26.4876 16.0572 23.9396 15.5472 21.4007 14.981C22.2933 14.4851 22.4971 13.9752 22.0122 13.4523C20.8016 14.054 19.7824 14.8691 18.9549 15.8982C17.1505 15.3742 15.3161 15.3742 13.4516 15.8982C13.543 15.255 13.4411 14.6435 13.1459 14.0638C10.7853 15.6218 8.44133 15.6218 6.11395 14.0638C4.67631 15.1211 3.0457 15.5289 1.22217 15.2868C1.22217 15.0831 1.22217 14.8789 1.22217 14.6753C1.22217 13.4523 1.22217 12.2294 1.22217 11.0065C1.61956 10.8206 2.02717 10.6169 2.44511 10.395C3.47116 11.8332 4.89791 12.6489 6.72542 12.8409C8.10172 12.0062 9.32466 12.2104 10.3942 13.4523C10.8925 12.3664 11.6059 11.9585 12.5344 12.2294C12.7382 12.6373 12.9421 13.0445 13.1459 13.4523C14.5219 12.7137 15.8467 11.8986 17.1204 11.0065C19.3678 11.2871 21.6099 11.4907 23.8466 11.6179C25.8504 10.0856 27.787 10.0856 29.6556 11.6179C29.844 11.1239 30.1497 10.716 30.5728 10.395C31.4497 11.2731 32.1627 12.2918 32.713 13.4523C33.2774 12.6825 33.7873 11.8674 34.2417 11.0065C36.1311 12.2086 38.1691 12.3107 40.3564 11.3122C39.5413 10.9043 38.7256 10.4971 37.9105 10.0892C39.3774 9.65449 40.804 9.75661 42.1908 10.395C43.4076 9.07665 44.7327 7.8537 46.1654 6.72615C47.1951 7.68371 48.418 8.29519 49.8342 8.56057C50.7 7.90446 51.5158 7.90446 52.2801 8.56057C52.8108 6.3929 53.7281 5.98566 55.0317 7.33762C56.136 6.50663 57.0532 6.71086 57.7833 7.94909C57.9356 7.2618 58.2413 6.65033 58.7005 6.11468C59.6153 8.45967 60.2268 8.45967 60.535 6.11468C61.3745 6.01868 62.1902 6.12079 62.9809 6.42041C63.6743 7.04167 63.4706 7.44952 62.3694 7.64336C64.334 8.07322 66.27 7.97111 68.1784 7.33762C68.7966 7.57732 69.1023 7.98517 69.0956 8.56057C71.9083 7.98395 74.7621 7.77972 77.6562 7.94909C77.6562 7.33762 77.6562 6.72615 77.6562 6.11468C78.9183 6.00033 80.1412 5.6946 81.325 5.19747C80.9172 4.99385 80.5099 4.78962 80.1021 4.586C81.8857 4.1812 82.7008 3.06037 82.548 1.2229Z" fill="#CDD0D0"/>
<path fill-rule="evenodd" clip-rule="evenodd" d="M103.338 14.0638C113.016 13.3539 122.8 13.2518 132.688 13.7581C146.889 15.9796 151.271 23.623 145.835 36.6883C143.794 39.3464 141.246 41.2829 138.192 42.4973C152.892 46.928 157.478 56.2016 151.95 70.3193C148.116 75.0417 143.122 77.7933 136.969 78.5741C125.758 78.982 114.548 78.982 103.338 78.5741C104.255 77.6569 105.172 76.7397 106.089 75.8225C106.497 56.2554 106.497 36.6883 106.089 17.1212C105.48 15.8004 104.563 14.7811 103.338 14.0638ZM118.624 18.3441C123.423 18.3453 128.111 19.0589 132.688 20.4843C137.633 23.9036 139.161 28.4897 137.274 34.2424C135.352 37.2979 132.601 39.2345 129.019 40.0514C125.378 40.7069 121.709 41.0126 118.013 40.9686C117.822 33.3784 118.026 25.8365 118.624 18.3441ZM118.013 46.4718C122.705 46.3703 127.394 46.4718 132.077 46.7776C141.777 49.7671 145.14 56.1875 142.166 66.039C140.001 70.03 136.638 72.3738 132.077 73.0709C127.394 73.3766 122.705 73.4781 118.013 73.3766C118.013 64.4082 118.013 55.4403 118.013 46.4718Z" fill="#CDD0D0"/>
<path fill-rule="evenodd" clip-rule="evenodd" d="M182.218 51.3637C179.16 51.3637 176.103 51.3637 173.046 51.3637C172.844 59.421 173.049 67.3702 173.657 75.2111C174.132 76.8082 175.152 77.9291 176.714 78.5742C171.008 78.982 165.3 78.982 159.593 78.5742C160.918 78.0648 161.836 77.1476 162.345 75.8225C162.753 56.2554 162.753 36.6883 162.345 17.1212C161.659 15.8225 160.742 14.7016 159.593 13.7581C169.58 13.3503 179.568 13.3503 189.555 13.7581C201.671 16.6877 206.869 24.3311 205.148 36.6883C202.343 44.9878 196.534 49.7775 187.721 51.0579C185.898 51.3624 184.063 51.4646 182.218 51.3637ZM173.657 18.3442C179.144 17.8556 184.443 18.5692 189.555 20.4843C193.583 23.1387 195.418 26.9097 195.059 31.7966C194.925 39.5769 191.052 44.3666 183.441 46.1661C179.982 46.4713 176.516 46.5734 173.046 46.4719C172.852 37.0485 173.056 27.6722 173.657 18.3442Z" fill="#CDD0D0"/>
<path fill-rule="evenodd" clip-rule="evenodd" d="M210.345 14.0638C215.741 13.3564 221.244 13.2542 226.855 13.7581C225.707 14.7016 224.79 15.8224 224.104 17.1212C223.696 36.4847 223.696 55.8476 224.104 75.2111C224.79 76.5098 225.707 77.6306 226.855 78.5741C221.148 78.982 215.441 78.982 209.734 78.5741C211.059 78.0648 211.976 77.1476 212.486 75.8225C212.893 56.0518 212.893 36.2805 212.486 16.5097C212.082 15.3944 211.368 14.5793 210.345 14.0638Z" fill="#CDD0D0"/>
<path fill-rule="evenodd" clip-rule="evenodd" d="M95.3889 3.66879C95.3889 5.91106 95.3889 8.15272 95.3889 10.395C93.8052 10.7319 93.3979 11.547 94.1659 12.8409C93.0677 13.2328 92.1505 13.8443 91.4143 14.6753C91.1611 14.3958 90.8554 14.1916 90.4971 14.0638C89.7444 14.7676 89.7444 15.4806 90.4971 16.204C89.3133 16.7011 88.0903 17.0068 86.8283 17.1212C86.8283 17.7327 86.8283 18.3441 86.8283 18.9556C85.0587 19.2357 83.53 18.8278 82.2422 17.7327C80.9245 18.752 79.3958 19.3634 77.6562 19.5671C76.7591 19.4307 75.8419 19.2271 74.9046 18.9556C74.2931 21.4015 73.6816 21.4015 73.0701 18.9556C73.0396 20.3277 72.5302 21.3471 71.5415 22.013C71.8704 21.0242 72.074 20.0049 72.1529 18.9556C72.6427 18.0127 72.8463 16.994 72.7644 15.8982C69.0607 15.1412 65.3919 15.3449 61.7579 16.5097C60.6621 17.0044 59.4392 17.3101 58.0891 17.4269C57.6292 17.8372 57.425 18.3466 57.4776 18.9556C56.1024 19.3102 55.0837 20.1253 54.4202 21.4015C54.0124 21.4015 53.6051 21.4015 53.1973 21.4015C52.5259 20.853 52.5259 20.3436 53.1973 19.8728C52.214 19.4705 51.5005 19.7762 51.0571 20.79C49.3352 21.1752 47.7051 20.768 46.1654 19.5671C44.8372 20.2305 43.6143 21.0462 42.4965 22.013C41.8068 20.4904 40.5838 19.8789 38.8277 20.1785C37.0049 19.9223 35.5783 20.5338 34.5474 22.013C34.0735 20.0978 33.0542 19.69 31.49 20.79C30.6554 20.5797 29.9418 20.1718 29.3499 19.5671C28.6357 21.3825 27.8206 21.5861 26.904 20.1785C25.2928 22.6055 23.0505 23.2169 20.1778 22.013C18.3713 21.8852 16.7407 22.293 15.286 23.2359C13.4516 21.6051 11.6172 21.6051 9.78278 23.2359C7.04216 21.6326 4.1886 21.2254 1.22217 22.013C1.22217 20.5864 1.22217 19.1592 1.22217 17.7327C2.48162 18.0512 3.80649 17.8476 5.19674 17.1212C6.31335 17.433 6.41528 17.943 5.50247 18.6499C6.58924 19.9657 7.50645 19.8636 8.2541 18.3441C10.3438 19.0302 12.3821 18.8266 14.3688 17.7327C16.5345 19.9596 18.7766 19.9596 21.095 17.7327C23.0414 18.9697 25.1815 19.2754 27.5155 18.6499C27.8762 17.8556 28.4877 17.3462 29.3499 17.1212C31.6619 17.5303 33.9041 17.7339 36.0761 17.7327C36.0761 17.1212 36.0761 16.5097 36.0761 15.8982C39.3089 16.4131 42.5699 16.6173 45.8596 16.5097C45.8596 15.8982 45.8596 15.2868 45.8596 14.6753C47.8457 14.4301 49.7822 14.0222 51.6686 13.4523C52.2513 14.7315 53.0664 14.9352 54.1145 14.0638C54.7144 15.993 55.5301 16.1966 56.5604 14.6753C61.0682 15.7949 65.7563 15.387 70.6242 13.4523C71.6772 13.5202 71.7787 13.826 70.93 14.3696C72.3731 13.9586 73.596 14.468 74.5988 15.8982C75.0067 15.4904 75.4139 15.0831 75.8218 14.6753C75.9251 15.664 76.1293 16.6834 76.4332 17.7327C78.2634 16.1532 80.302 15.7454 82.548 16.5097C83.2793 16.2981 83.2793 15.9924 82.548 15.5925C84.7853 14.8098 86.9255 13.8926 88.9684 12.8409C91.2572 9.50713 93.3973 6.44977 95.3889 3.66879Z" fill="#CDD0D0"/>
<path fill-rule="evenodd" clip-rule="evenodd" d="M61.7576 16.5098C62.5727 16.5098 63.3884 16.5098 64.2035 16.5098C61.9863 17.3261 59.744 18.1418 57.4773 18.9557C57.4247 18.3467 57.629 17.8373 58.0888 17.427C59.4389 17.3102 60.6619 17.0045 61.7576 16.5098Z" fill="#CDD0D0"/>
<path fill-rule="evenodd" clip-rule="evenodd" d="M72.7641 15.8983C69.8883 15.8597 67.0346 16.064 64.2035 16.5097C63.3884 16.5097 62.5727 16.5097 61.7576 16.5097C65.3915 15.3449 69.0604 15.1413 72.7641 15.8983Z" fill="#CDD0D0"/>
<path fill-rule="evenodd" clip-rule="evenodd" d="M53.1973 21.4016C51.6949 24.0095 51.0834 26.8632 51.3629 29.9622C51.3629 30.37 51.3629 30.7773 51.3629 31.1851C50.8181 31.5581 50.2066 31.7617 49.5285 31.7966C49.3628 30.6886 48.9549 29.6699 48.3055 28.7392C45.5716 26.9531 42.5143 26.1374 39.1334 26.2933C38.6669 25.8237 38.0554 25.518 37.299 25.3761C34.8617 25.071 32.4158 24.9689 29.9614 25.0704C28.8821 24.4828 27.6592 24.2785 26.2925 24.4589C26.2925 28.7392 26.2925 33.0195 26.2925 37.2998C25.8847 33.7252 25.4774 30.0563 25.0696 26.2933C22.5186 24.4595 20.3784 24.8674 18.6491 27.5163C18.3702 26.7556 18.676 26.2462 19.5663 25.9876C19.2606 25.6819 18.9549 25.3761 18.6491 25.0704C16.0405 25.3951 13.4927 26.0066 11.0057 26.9048C7.56228 26.6523 4.30111 25.8366 1.22217 24.4589C1.22217 23.6438 1.22217 22.8281 1.22217 22.013C4.1886 21.2255 7.04216 21.6327 9.78278 23.236C11.6172 21.6052 13.4516 21.6052 15.286 23.236C16.7407 22.2931 18.3713 21.8852 20.1778 22.013C23.0505 23.217 25.2928 22.6055 26.904 20.1786C27.8206 21.5862 28.6357 21.3826 29.3499 19.5671C29.9418 20.1719 30.6554 20.5797 31.49 20.7901C33.0542 19.69 34.0735 20.0979 34.5474 22.013C35.5783 20.5339 37.0049 19.9224 38.8277 20.1786C40.5838 19.879 41.8068 20.4905 42.4965 22.013C43.6143 21.0463 44.8372 20.2306 46.1654 19.5671C47.7051 20.7681 49.3352 21.1753 51.0571 20.7901C51.5005 19.7763 52.214 19.4705 53.1973 19.8729C52.5259 20.3437 52.5259 20.8531 53.1973 21.4016Z" fill="#CDD0D0"/>
<path fill-rule="evenodd" clip-rule="evenodd" d="M72.1527 18.9557C72.0738 20.005 71.8702 21.0243 71.5412 22.013C70.5121 25.1676 70.1049 28.4286 70.3183 31.7966C70.0401 34.9964 68.4093 37.2381 65.4265 38.5228C65.8344 37.5035 66.2416 36.4848 66.6495 35.4654C67.9305 32.3255 68.9498 29.0645 69.7068 25.6819C69.1412 25.0325 68.5297 25.0325 67.8724 25.6819C68.2876 23.7209 69.0012 21.8865 70.0126 20.1786C70.5115 19.3697 71.2251 18.9624 72.1527 18.9557Z" fill="#CDD0D0"/>
<path fill-rule="evenodd" clip-rule="evenodd" d="M29.9612 25.0703C32.4156 24.9688 34.8615 25.0709 37.2988 25.3761C38.0552 25.5179 38.6667 25.8237 39.1333 26.2933C35.9732 26.0279 32.9158 25.6207 29.9612 25.0703Z" fill="#CDD0D0"/>
<path fill-rule="evenodd" clip-rule="evenodd" d="M95.3885 17.7327C95.3885 22.4209 95.3885 27.1084 95.3885 31.7966C93.0191 31.4138 91.8977 32.4331 92.0254 34.8539C90.1336 32.0393 88.5028 32.0393 87.1337 34.8539C86.5173 34.5592 85.8037 34.4577 84.9935 34.5482C85.9064 33.8413 85.8043 33.3313 84.6878 33.0195C83.5804 33.3729 82.459 33.6787 81.3247 33.9367C81.9692 34.7854 82.0707 35.7026 81.6304 36.6883C81.2079 35.2263 80.5964 35.2263 79.796 36.6883C79.5007 36.1087 79.3992 35.4972 79.4903 34.8539C77.9971 34.6209 77.5892 35.0288 78.2673 36.0769C77.0107 37.3334 75.5842 38.3521 73.987 39.1342C73.3914 40.5058 73.1872 41.9323 73.3755 43.4145C71.6237 43.1302 69.9929 42.5187 68.4838 41.5801C67.9659 40.6837 67.1508 40.1737 66.0379 40.0514C65.5781 39.6411 65.3738 39.1318 65.4264 38.5227C68.4092 37.238 70.04 34.9964 70.3182 31.7966C70.6258 29.6191 71.4409 27.5811 72.7641 25.6818C75.1708 25.7943 77.0052 26.8131 78.2673 28.7392C77.7433 30.6757 78.4563 31.2872 80.4075 30.5736C83.0203 32.2674 85.4662 32.0638 87.7451 29.9621C88.7798 31.0292 89.9006 31.2328 91.1082 30.5736C90.7872 30.1505 90.3794 29.8447 89.8853 29.6564C90.6502 27.8678 91.2617 26.0334 91.7197 24.1532C91.3119 23.7453 90.9046 23.3381 90.4968 22.9302C92.3287 21.3196 93.9595 19.5873 95.3885 17.7327Z" fill="#CDD0D0"/>
<path fill-rule="evenodd" clip-rule="evenodd" d="M95.3887 10.395C95.3887 12.8409 95.3887 15.2868 95.3887 17.7327C93.9597 19.5873 92.3289 21.3196 90.4969 22.9302C90.9048 23.3381 91.312 23.7453 91.7199 24.1531C91.2619 26.0334 90.6504 27.8678 89.8854 29.6564C90.3795 29.8447 90.7874 30.1505 91.1084 30.5736C89.9007 31.2328 88.7799 31.0291 87.7453 29.9621C85.4663 32.0638 83.0204 32.2674 80.4076 30.5736C78.4564 31.2872 77.7434 30.6757 78.2675 28.7392C77.0054 26.813 75.171 25.7943 72.7642 25.6818C71.441 27.5811 70.6259 29.6191 70.3183 31.7965C70.1049 28.4286 70.5122 25.1676 71.5413 22.013C72.53 21.3471 73.0394 20.3278 73.07 18.9556C73.6814 21.4015 74.2929 21.4015 74.9044 18.9556C75.8418 19.2271 76.759 19.4307 77.656 19.5671C79.3956 19.3635 80.9243 18.752 82.242 17.7327C83.5298 18.8278 85.0585 19.2357 86.8281 18.9556C86.8281 18.3442 86.8281 17.7327 86.8281 17.1212C88.0902 17.0069 89.3131 16.7011 90.4969 16.204C89.7442 15.4806 89.7442 14.7677 90.4969 14.0639C90.8552 14.1916 91.161 14.3959 91.4141 14.6753C92.1503 13.8443 93.0675 13.2329 94.1657 12.8409C93.3977 11.547 93.805 10.7319 95.3887 10.395Z" fill="#CDD0D0"/>
<path fill-rule="evenodd" clip-rule="evenodd" d="M53.197 21.4016C53.6049 21.4016 54.0121 21.4016 54.42 21.4016C54.0396 22.0907 53.5303 22.7022 52.8913 23.236C52.5042 25.5883 51.9943 27.8306 51.3626 29.9622C51.0832 26.8632 51.6946 24.0095 53.197 21.4016Z" fill="#CDD0D0"/>
<path fill-rule="evenodd" clip-rule="evenodd" d="M66.6495 35.4654C66.0381 35.4654 65.4266 35.4654 64.8151 35.4654C65.0915 39.1183 63.4607 40.647 59.9233 40.0514C60.4834 39.8814 60.8907 39.5757 61.1463 39.1342C61.5541 39.1342 61.7578 38.9306 61.7578 38.5227C62.3668 38.5753 62.8761 38.3711 63.2864 37.9113C65.1355 34.8301 66.46 31.5691 67.261 28.1277C67.4646 27.3126 67.6689 26.4969 67.8725 25.6818C68.5298 25.0324 69.1413 25.0324 69.7069 25.6818C68.9499 29.0645 67.9306 32.3255 66.6495 35.4654Z" fill="#CDD0D0"/>
<path fill-rule="evenodd" clip-rule="evenodd" d="M67.2608 28.1277C66.4598 31.5691 65.1353 34.83 63.2862 37.9112C62.876 38.3711 62.3666 38.5753 61.7576 38.5227C62.706 36.3917 63.8274 34.3531 65.1207 32.408C65.0552 30.5173 65.7682 29.0908 67.2608 28.1277Z" fill="#CDD0D0"/>
<path fill-rule="evenodd" clip-rule="evenodd" d="M51.3627 31.185C51.249 34.1262 50.6375 34.3298 49.5283 31.7965C50.2064 31.7616 50.8179 31.558 51.3627 31.185Z" fill="#CDD0D0"/>
<path fill-rule="evenodd" clip-rule="evenodd" d="M51.3627 34.8539C52.4175 35.0636 52.7233 35.6751 52.28 36.6883C51.6446 36.2334 51.3389 35.6219 51.3627 34.8539Z" fill="#CDD0D0"/>
<path fill-rule="evenodd" clip-rule="evenodd" d="M55.0314 39.1342C55.1654 38.4158 54.9617 37.8043 54.42 37.2998C54.2163 37.7077 54.0121 38.1149 53.8085 38.5228C53.9595 39.2645 54.3674 39.6723 55.0314 39.7457C54.5979 40.2985 53.9864 40.5021 53.197 40.3572C53.197 39.1342 53.197 37.9113 53.197 36.6884C54.0121 36.6884 54.8278 36.6884 55.6429 36.6884C55.8068 37.6661 55.6026 38.4812 55.0314 39.1342Z" fill="#CDD0D0"/>
<path fill-rule="evenodd" clip-rule="evenodd" d="M55.0313 39.1342C55.0313 39.3378 55.0313 39.5421 55.0313 39.7457C54.3672 39.6723 53.9594 39.2645 53.8083 38.5227C54.012 38.1149 54.2162 37.7077 54.4198 37.2998C54.9616 37.8043 55.1652 38.4157 55.0313 39.1342Z" fill="#CDD0D0"/>
<path fill-rule="evenodd" clip-rule="evenodd" d="M95.3886 31.7965C95.3886 42.3952 95.3886 52.9944 95.3886 63.5931C94.801 64.6723 94.5968 65.8953 94.7772 67.2619C92.6969 67.7113 90.6589 67.7113 88.6624 67.2619C87.7183 67.4392 86.9032 67.8465 86.2165 68.4848C85.2327 67.6361 84.1119 67.0246 82.8534 66.6504C80.6161 66.818 78.578 67.4294 76.7387 68.4848C75.1232 67.5316 73.6967 67.7358 72.4584 69.0963C71.5357 68.7355 70.6185 68.3283 69.7068 67.8734C70.4351 65.1016 69.8236 64.7958 67.8724 66.9562C68.6129 67.5022 68.6129 68.0116 67.8724 68.4848C67.2609 67.2619 66.6494 66.039 66.038 64.816C66.3082 64.0584 66.7161 63.4469 67.2609 62.9816C69.1436 62.8348 70.978 63.0385 72.7642 63.5931C73.4955 63.3815 73.4955 63.0758 72.7642 62.6759C74.7001 62.479 76.3309 61.7654 77.6559 60.5357C79.3778 60.5088 80.8044 59.8973 81.9362 58.7013C80.284 56.1949 78.6532 53.749 77.0445 51.3636C76.6598 49.5922 76.0484 47.9614 75.21 46.4718C74.716 45.4201 74.1045 44.4008 73.3756 43.4145C73.1873 41.9323 73.3915 40.5057 73.9871 39.1342C75.5843 38.3521 77.0108 37.3334 78.2674 36.0768C77.5893 35.0288 77.9971 34.6209 79.4903 34.8539C79.3992 35.4971 79.5007 36.1086 79.7961 36.6883C80.5965 35.2263 81.208 35.2263 81.6305 36.6883C82.0708 35.7026 81.9693 34.7854 81.3248 33.9367C82.459 33.6786 83.5805 33.3729 84.6879 33.0195C85.8044 33.3313 85.9065 33.8413 84.9936 34.5481C85.8038 34.4576 86.5174 34.5591 87.1338 34.8539C88.5028 32.0393 90.1336 32.0393 92.0255 34.8539C91.8977 32.4331 93.0192 31.4137 95.3886 31.7965Z" fill="#CDD0D0"/>
<path fill-rule="evenodd" clip-rule="evenodd" d="M51.9741 44.6374C50.8992 44.4069 49.8799 43.9991 48.9168 43.4145C48.5456 43.4903 48.342 43.6939 48.3053 44.026C47.286 43.4145 46.4709 42.5994 45.8594 41.5801C46.806 41.3838 47.2138 40.7723 47.0824 39.7457C45.8698 39.5359 45.0541 39.9438 44.6365 40.9686C43.1971 40.7179 41.9741 40.1064 40.9677 39.1342C42.5232 38.8596 44.1534 38.8596 45.8594 39.1342C45.8594 38.5227 45.8594 37.9113 45.8594 37.2998C46.4709 37.2998 47.0824 37.2998 47.6938 37.2998C47.6938 36.6883 47.6938 36.0768 47.6938 35.4654C48.3053 35.4654 48.9168 35.4654 49.5283 35.4654C49.6554 36.9451 49.4512 38.3717 48.9168 39.7457C49.952 41.3869 50.9713 43.0177 51.9741 44.6374Z" fill="#CDD0D0"/>
<path fill-rule="evenodd" clip-rule="evenodd" d="M66.6494 35.4654C66.2415 36.4847 65.8343 37.5034 65.4264 38.5227C65.3738 39.1317 65.5781 39.6411 66.0379 40.0514C67.1508 40.1737 67.9659 40.6837 68.4838 41.5801C64.8382 40.9863 61.1694 40.9863 57.4773 41.5801C57.802 39.5751 59.0249 38.7594 61.1461 39.1342C60.8905 39.5757 60.4833 39.8814 59.9232 40.0514C63.4605 40.647 65.0913 39.1183 64.815 35.4654C65.4264 35.4654 66.0379 35.4654 66.6494 35.4654Z" fill="#CDD0D0"/>
<path fill-rule="evenodd" clip-rule="evenodd" d="M45.8594 41.5801C45.4516 41.3764 45.0443 41.1722 44.6365 40.9686C45.0541 39.9438 45.8698 39.5359 47.0824 39.7457C47.2138 40.7723 46.806 41.3838 45.8594 41.5801Z" fill="#CDD0D0"/>
<path fill-rule="evenodd" clip-rule="evenodd" d="M32.407 44.6374C33.8733 44.4901 35.0962 44.8979 36.0758 45.8604C34.6095 46.0077 33.3866 45.5999 32.407 44.6374Z" fill="#CDD0D0"/>
<path fill-rule="evenodd" clip-rule="evenodd" d="M48.3053 44.026C48.342 43.6939 48.5456 43.4903 48.9168 43.4145C49.8798 43.9991 50.8992 44.4069 51.9741 44.6374C52.6364 44.6136 53.2478 44.4094 53.8086 44.026C54.0122 44.7395 54.2164 45.4525 54.42 46.1661C54.354 47.194 53.9461 47.9076 53.1971 48.3063C53.1971 47.2869 53.1971 46.2682 53.1971 45.2489C51.0098 45.0318 49.1754 45.6433 47.6938 47.0833C46.724 46.6871 45.7047 46.3814 44.6365 46.1661C44.9575 45.743 45.3653 45.4372 45.8594 45.2489C46.82 45.7436 47.8394 45.9478 48.9168 45.8604C49.0617 45.071 48.8581 44.4595 48.3053 44.026Z" fill="#CDD0D0"/>
<path fill-rule="evenodd" clip-rule="evenodd" d="M53.197 48.3063C52.827 49.5176 52.2156 49.7218 51.3626 48.9178C51.4151 48.3087 51.2109 47.7994 50.7511 47.3891C49.7519 47.087 48.7326 46.9855 47.6937 47.0833C49.1753 45.6433 51.0097 45.0318 53.197 45.2489C53.197 46.2682 53.197 47.287 53.197 48.3063Z" fill="#CDD0D0"/>
<path fill-rule="evenodd" clip-rule="evenodd" d="M39.1333 47.0834C40.7641 47.0834 42.3943 47.0834 44.0251 47.0834C44.1565 48.11 43.7487 48.7215 42.8021 48.9178C41.7895 47.9639 40.5666 47.3524 39.1333 47.0834Z" fill="#CDD0D0"/>
<path fill-rule="evenodd" clip-rule="evenodd" d="M47.6937 47.0834C48.7326 46.9856 49.7519 47.0871 50.7511 47.3891C51.2109 47.7994 51.4151 48.3088 51.3626 48.9178C50.0944 48.2978 48.8714 47.6863 47.6937 47.0834Z" fill="#CDD0D0"/>
<path fill-rule="evenodd" clip-rule="evenodd" d="M75.21 46.4718C76.0483 47.9614 76.6598 49.5922 77.0444 51.3636C75.7267 50.0691 75.1152 48.4383 75.21 46.4718Z" fill="#CDD0D0"/>
<path fill-rule="evenodd" clip-rule="evenodd" d="M49.5283 50.7522C50.7513 51.16 51.9742 51.5673 53.1972 51.9751C53.1972 52.5866 53.1972 53.1981 53.1972 53.8095C51.9742 53.4017 50.7513 52.9944 49.5283 52.5866C49.5283 51.9751 49.5283 51.3636 49.5283 50.7522Z" fill="#CDD0D0"/>
<path fill-rule="evenodd" clip-rule="evenodd" d="M60.5347 50.7522C60.8251 52.331 60.4173 53.554 59.3117 54.421C58.9901 53.3632 58.3786 52.5475 57.4773 51.9751C58.1206 50.9014 59.1399 50.4935 60.5347 50.7522Z" fill="#CDD0D0"/>
<path fill-rule="evenodd" clip-rule="evenodd" d="M40.9675 50.7522C40.4056 52.3353 39.3862 53.5582 37.9102 54.421C38.4721 52.8379 39.4914 51.615 40.9675 50.7522Z" fill="#CDD0D0"/>
<path fill-rule="evenodd" clip-rule="evenodd" d="M182.218 51.3636C179.484 51.9665 176.631 52.1701 173.657 51.9751C173.657 59.7206 173.657 67.4655 173.657 75.211C173.049 67.3701 172.844 59.421 173.046 51.3636C176.103 51.3636 179.16 51.3636 182.218 51.3636Z" fill="#CDD0D0"/>
<path fill-rule="evenodd" clip-rule="evenodd" d="M60.5348 50.7522C60.8693 52.6514 61.4808 54.4858 62.3692 56.2554C62.409 56.5232 62.3075 56.7275 62.0635 56.8669C61.0442 56.1129 60.127 55.2972 59.3119 54.421C60.4174 53.5539 60.8253 52.331 60.5348 50.7522Z" fill="#CDD0D0"/>
<path fill-rule="evenodd" clip-rule="evenodd" d="M57.4772 51.9752C58.3785 52.5475 58.99 53.3632 59.3116 54.421C60.1267 55.2973 61.0439 56.113 62.0632 56.8669C62.3072 56.7275 62.4087 56.5233 62.369 56.2555C63.3602 56.431 63.9716 57.0424 64.2034 58.0899C62.7982 59.459 63.2055 59.9689 65.4263 59.6186C65.2227 59.4149 65.0185 59.2107 64.8148 59.0071C67.5469 57.6325 68.362 58.4476 67.2607 61.453C68.8787 61.7569 70.5095 61.859 72.1525 61.7587C70.6556 62.3537 69.0248 62.5573 67.2607 62.3702C65.8666 61.6731 64.4394 60.9595 62.9804 60.23C61.2432 57.7799 59.2046 55.6397 56.8657 53.8096C56.2977 54.5366 56.094 55.3517 56.2542 56.2555C55.4391 55.8476 54.6234 55.4404 53.8083 55.0325C55.1579 54.1716 56.3808 53.1522 57.4772 51.9752Z" fill="#CDD0D0"/>
<path fill-rule="evenodd" clip-rule="evenodd" d="M77.6559 60.5357C76.3308 61.7654 74.7 62.479 72.7641 62.6759C73.4954 63.0758 73.4954 63.3815 72.7641 63.5931C70.978 63.0385 69.1436 62.8349 67.2609 62.9816C67.2609 62.778 67.2609 62.5738 67.2609 62.3702C69.025 62.5573 70.6558 62.3536 72.1526 61.7587C73.9076 61.0653 75.742 60.658 77.6559 60.5357Z" fill="#CDD0D0"/>
<path fill-rule="evenodd" clip-rule="evenodd" d="M1.22217 24.4589C4.30111 25.8366 7.56228 26.6523 11.0057 26.9048C13.4927 26.0066 16.0405 25.3951 18.6491 25.0704C18.9549 25.3761 19.2606 25.6819 19.5663 25.9876C18.676 26.2463 18.3702 26.7556 18.6491 27.5163C20.3784 24.8674 22.5186 24.4595 25.0696 26.2933C25.4774 30.0563 25.8847 33.7252 26.2925 37.2998C28.5611 39.5672 30.5991 42.0131 32.4072 44.6375C33.3868 45.6 34.6098 46.0078 36.0761 45.8604C37.0104 46.3551 38.0291 46.763 39.1334 47.0834C40.5667 47.3524 41.7897 47.9639 42.8023 48.9178C41.9872 49.3257 41.3757 49.9371 40.9679 50.7522C39.4918 51.615 38.4724 52.838 37.9105 54.4211C37.3981 54.6302 37.1938 55.0374 37.299 55.644C36.7132 55.921 36.2033 56.3282 35.7703 56.8669C35.4652 59.7133 35.3631 62.5665 35.4646 65.4276C34.9718 64.5911 34.3603 63.776 33.6302 62.9817C34.2325 62.0045 34.334 60.9852 33.9359 59.9243C33.5959 61.2053 33.2902 61.3075 33.0187 60.23C34.2068 59.1086 34.4104 57.8857 33.6302 56.5612C35.4267 54.4969 34.9167 53.1718 32.1015 52.5866C30.1258 53.6133 28.2914 54.4284 26.5983 55.0325C27.0997 52.8863 26.3861 52.3769 24.4581 53.5038C25.2628 54.7133 24.9571 55.6305 23.5409 56.2555C21.969 55.7045 20.5422 54.8894 19.2606 53.8096C18.4845 54.6687 18.1788 55.6874 18.3434 56.8669C22.9645 57.8349 23.1683 58.8542 18.9549 59.9243C19.3625 60.3322 19.7701 60.7394 20.1778 61.1472C19.4372 61.8932 19.4372 62.6068 20.1778 63.2874C17.5118 64.7696 14.6583 65.6868 11.6172 66.039C10.6934 67.8961 9.87817 69.8326 9.1713 71.848C9.66831 72.6515 10.2798 73.3651 11.0057 73.9882C9.71185 74.8882 8.2851 75.6018 6.72542 76.1283C7.60031 76.4126 8.31372 76.9226 8.86557 77.657C12.2635 75.5272 13.8941 76.3429 13.7573 80.1029C14.5167 78.8549 15.6377 78.1419 17.1204 77.9627C16.5774 76.9128 16.9851 76.1992 18.3434 75.8226C18.7511 75.9247 19.1587 76.0262 19.5663 76.1283C18.0945 77.5732 17.9926 79.1019 19.2606 80.7144C19.3806 79.6223 19.8901 78.8072 20.7893 78.2685C23.0301 80.6269 25.6798 81.2384 28.7384 80.1029C30.7746 80.91 31.9976 82.133 32.4072 83.7717C33.8809 83.9105 35.4096 83.7069 36.9933 83.1602C39.6141 84.267 42.3657 84.5727 45.2482 84.0775C46.3745 83.2556 47.3932 82.3384 48.3055 81.3258C48.2988 81.9012 48.6045 82.3091 49.2227 82.5488C50.217 82.0663 51.1342 81.4548 51.9743 80.7144C52.3975 81.0354 52.7032 81.4432 52.8916 81.9373C55.3778 81.3478 57.9258 81.1442 60.535 81.3258C60.4867 80.4514 60.6903 79.6357 61.1464 78.8799C62.6708 77.6081 64.301 76.4866 66.0382 75.5168C64.4496 73.7075 62.411 72.8918 59.9235 73.071C59.6178 72.7652 59.312 72.4595 59.0063 72.1537C58.8565 73.4764 58.245 74.4957 57.1719 75.2111C56.5384 73.502 55.7233 71.8712 54.726 70.3193C54.0472 69.3795 53.13 68.9723 51.9743 69.0964C51.9743 68.8928 51.9743 68.6885 51.9743 68.4849C53.1679 66.8584 54.3909 65.2282 55.6432 63.5931C56.5237 62.7089 56.9316 61.5881 56.8661 60.23C56.8576 59.3832 56.6533 58.6702 56.2547 58.0899C56.2547 57.4784 56.2547 56.8669 56.2547 56.2555C56.0944 55.3517 56.2981 54.5366 56.8661 53.8096C59.205 55.6397 61.2437 57.7799 62.9808 60.23C64.4398 60.9595 65.867 61.6731 67.2612 62.3702C67.2612 62.5738 67.2612 62.778 67.2612 62.9817C66.7163 63.447 66.3085 64.0585 66.0382 64.8161C66.6497 66.039 67.2612 67.262 67.8726 68.4849C68.6131 68.0116 68.6131 67.5023 67.8726 66.9562C69.8238 64.7959 70.4353 65.1016 69.707 67.8734C70.6187 68.3284 71.536 68.7356 72.4587 69.0964C73.6969 67.7359 75.1235 67.5316 76.739 68.4849C78.5783 67.4295 80.6163 66.818 82.8537 66.6505C84.1121 67.0247 85.2329 67.6362 86.2168 68.4849C86.9035 67.8465 87.7186 67.4393 88.6627 67.262C90.6591 67.7114 92.6972 67.7114 94.7774 67.262C94.597 65.8953 94.8012 64.6724 95.3889 63.5931C95.3889 68.0771 95.3889 72.5616 95.3889 77.0455C94.7456 76.9544 94.1341 77.0559 93.5545 77.3513C92.5602 78.9582 91.3373 80.3848 89.8856 81.6316C88.0512 82.243 86.2168 82.8545 84.3824 83.466C83.2114 85.4288 81.4791 86.5496 79.1849 86.8291C74.6899 87.114 70.206 86.7062 65.7325 85.6061C64.4031 85.7816 63.0781 85.9852 61.7579 86.2176C55.187 84.245 48.6645 84.245 42.1908 86.2176C39.6617 85.0271 37.0116 84.7213 34.2417 85.3004C33.4737 85.5554 33.0658 86.0647 33.0187 86.8291C31.5316 87.5934 30.1044 88.5106 28.7384 89.5807C25.3233 90.3059 21.8586 90.7131 18.3434 90.8036C16.6374 91.1467 15.2106 91.9618 14.0631 93.2495C10.3589 93.7014 6.69007 93.4978 3.05658 92.6381C2.52252 91.9991 1.91105 91.4897 1.22217 91.1094C1.22217 68.8928 1.22217 46.6755 1.22217 24.4589Z" fill="#CDD0D0"/>
<path fill-rule="evenodd" clip-rule="evenodd" d="M55.6429 58.0898C55.8466 58.0898 56.0508 58.0898 56.2544 58.0898C56.6531 58.6701 56.8573 59.3831 56.8659 60.23C56.9313 61.5881 56.5235 62.7089 55.6429 63.5931C55.6429 61.7587 55.6429 59.9243 55.6429 58.0898Z" fill="#CDD0D0"/>
<path fill-rule="evenodd" clip-rule="evenodd" d="M37.2988 55.644C36.1786 58.749 35.7713 62.01 36.0758 65.4275C35.8722 65.4275 35.668 65.4275 35.4644 65.4275C35.3628 62.5664 35.465 59.7133 35.7701 56.8669C36.203 56.3282 36.713 55.9209 37.2988 55.644Z" fill="#CDD0D0"/>
<path fill-rule="evenodd" clip-rule="evenodd" d="M53.8086 55.0325C54.6237 55.4404 55.4394 55.8476 56.2545 56.2554C56.2545 56.8669 56.2545 57.4784 56.2545 58.0899C56.0508 58.0899 55.8466 58.0899 55.643 58.0899C55.2657 58.022 54.96 57.8184 54.7258 57.4784C53.8086 58.3956 52.8914 59.3128 51.9742 60.23C51.4654 60.6507 51.0582 60.5486 50.7512 59.9243C52.0897 58.4647 53.1091 56.8345 53.8086 55.0325Z" fill="#CDD0D0"/>
<path fill-rule="evenodd" clip-rule="evenodd" d="M51.9741 68.4849C51.9741 68.6885 51.9741 68.8927 51.9741 69.0963C50.8104 70.9051 49.1796 72.128 47.0823 72.7652C48.5437 71.0965 50.1745 69.6699 51.9741 68.4849Z" fill="#CDD0D0"/>
<path fill-rule="evenodd" clip-rule="evenodd" d="M35.4645 65.4275C35.6682 65.4275 35.8724 65.4275 36.076 65.4275C36.874 68.6292 37.3833 71.8908 37.6047 75.2111C38.2229 75.7229 38.9365 75.9265 39.7448 75.8225C41.1463 76.5478 42.5735 76.5478 44.0251 75.8225C45.2481 75.0075 46.2674 73.9881 47.0825 72.7652C49.1799 72.128 50.8106 70.9051 51.9743 69.0964C53.13 68.9722 54.0472 69.3795 54.7259 70.3193C55.7232 71.8712 56.5383 73.502 57.1718 75.2111C58.2449 74.4957 58.8564 73.4763 59.0062 72.1537C59.3119 72.4595 59.6177 72.7652 59.9234 73.0709C62.4109 72.8918 64.4495 73.7075 66.0381 75.5168C64.3009 76.4866 62.6708 77.608 61.1464 78.8799C60.6902 79.6357 60.4866 80.4514 60.5349 81.3258C57.9257 81.1442 55.3777 81.3478 52.8915 81.9373C52.7032 81.4432 52.3974 81.0353 51.9743 80.7143C51.1341 81.4548 50.2169 82.0663 49.2227 82.5487C48.6045 82.309 48.2987 81.9012 48.3054 81.3258C47.3931 82.3384 46.3744 83.2556 45.2481 84.0774C42.3656 84.5727 39.614 84.267 36.9932 83.1602C35.4095 83.7069 33.8808 83.9105 32.4072 83.7717C31.9975 82.1329 30.7745 80.91 28.7383 80.1029C25.6798 81.2384 23.0301 80.6269 20.7892 78.2684C19.89 78.8071 19.3805 79.6222 19.2605 80.7143C17.9925 79.1019 18.0944 77.5732 19.5663 76.1283C19.1586 76.0262 18.751 75.9247 18.3433 75.8225C16.985 76.1992 16.5773 76.9128 17.1204 77.9627C15.6376 78.1419 14.5166 78.8548 13.7573 80.1029C13.894 76.3429 12.2634 75.5272 8.86549 77.657C8.31364 76.9226 7.60024 76.4126 6.72534 76.1283C8.28502 75.6018 9.71177 74.8882 11.0056 73.9881C10.2797 73.365 9.66823 72.6515 9.17123 71.848C9.87809 69.8326 10.6934 67.896 11.6171 66.039C14.6582 65.6868 17.5118 64.7696 20.1777 63.2874C19.4372 62.6068 19.4372 61.8932 20.1777 61.1472C19.7701 60.7394 19.3625 60.3321 18.9548 59.9243C23.1682 58.8542 22.9644 57.8349 18.3433 56.8669C18.1787 55.6874 18.4844 54.6687 19.2605 53.8096C20.5422 54.8894 21.9689 55.7045 23.5408 56.2554C24.957 55.6305 25.2627 54.7133 24.458 53.5038C26.386 52.3769 27.0996 52.8862 26.5982 55.0325C28.2914 54.4284 30.1258 53.6133 32.1014 52.5866C34.9167 53.1718 35.4266 54.4968 33.6301 56.5612C34.4104 57.8856 34.2067 59.1086 33.0186 60.23C33.2901 61.3074 33.5959 61.2053 33.9359 59.9243C34.3339 60.9852 34.2324 62.0045 33.6301 62.9816C34.3602 63.7759 34.9717 64.591 35.4645 65.4275Z" fill="#CDD0D0"/>
<path fill-rule="evenodd" clip-rule="evenodd" d="M36.0758 65.4275C37.5219 68.7759 38.7449 72.2405 39.7446 75.8225C38.9363 75.9265 38.2227 75.7229 37.6045 75.2111C37.3831 71.8908 36.8738 68.6292 36.0758 65.4275Z" fill="#CDD0D0"/>
<path fill-rule="evenodd" clip-rule="evenodd" d="M47.0824 72.7652C46.2673 73.9881 45.248 75.0075 44.025 75.8226C44.4329 74.1918 45.4516 73.173 47.0824 72.7652Z" fill="#CDD0D0"/>
<path fill-rule="evenodd" clip-rule="evenodd" d="M95.3887 77.0455C95.3887 77.4533 95.3887 77.8606 95.3887 78.2684C93.4834 79.6668 91.8526 81.3991 90.4969 83.4659C86.29 85.0649 82.2133 86.7972 78.2675 88.6634C74.99 88.7301 71.729 88.5265 68.4839 88.052C67.1882 88.1119 66.1689 88.6212 65.4266 89.5806C64.2397 90.035 63.1189 89.9328 62.0635 89.2749C61.1628 90.1964 60.0413 90.6042 58.7004 90.4978C54.6188 88.8389 50.4406 87.4124 46.1652 86.2175C43.1947 87.1011 40.3409 86.8969 37.6046 85.6061C35.975 85.7088 34.4463 86.1166 33.0186 86.829C33.0656 86.0647 33.4735 85.5553 34.2415 85.3003C37.0115 84.7213 39.6616 85.027 42.1906 86.2175C48.6643 84.2449 55.1869 84.2449 61.7577 86.2175C63.0779 85.9852 64.403 85.7816 65.7323 85.6061C70.2058 86.7061 74.6898 87.114 79.1847 86.829C81.4789 86.5496 83.2112 85.4287 84.3822 83.4659C86.2166 82.8544 88.051 82.243 89.8855 81.6315C91.3371 80.3847 92.56 78.9581 93.5543 77.3512C94.134 77.0559 94.7454 76.9543 95.3887 77.0455Z" fill="#CDD0D0"/>
<path fill-rule="evenodd" clip-rule="evenodd" d="M95.3886 78.2684C95.3886 83.7717 95.3886 89.2749 95.3886 94.7782C93.4111 94.9586 91.5766 94.5513 89.8853 93.5552C90.0131 93.1969 90.2173 92.8912 90.4968 92.638C90.1219 91.3252 89.7147 90.0001 89.2738 88.6635C87.9176 89.0842 87.0004 88.4727 86.5222 86.829C83.9773 88.1223 81.2256 88.7338 78.2673 88.6635C82.2132 86.7972 86.2898 85.0649 90.4968 83.4659C91.8524 81.3992 93.4832 79.6669 95.3886 78.2684Z" fill="#CDD0D0"/>
<path fill-rule="evenodd" clip-rule="evenodd" d="M78.2673 88.6634C76.0159 89.9047 75.0987 91.7391 75.5157 94.1667C74.8975 94.6785 74.1839 94.8821 73.3756 94.7782C54.6235 94.7782 35.8721 94.7782 17.1201 94.7782C20.6437 93.7857 24.3126 93.0722 28.1266 92.638C30.9895 91.6841 32.6197 89.7476 33.0184 86.829C34.4462 86.1167 35.9749 85.7088 37.6044 85.6061C40.3408 86.8969 43.1945 87.1011 46.165 86.2176C50.4405 87.4124 54.6186 88.8389 58.7002 90.4979C60.0412 90.6043 61.1626 90.1964 62.0633 89.2749C63.1187 89.9329 64.2395 90.035 65.4264 89.5806C66.1687 88.6212 67.1881 88.1119 68.4838 88.052C71.7289 88.5265 74.9898 88.7301 78.2673 88.6634Z" fill="#CDD0D0"/>
<path fill-rule="evenodd" clip-rule="evenodd" d="M33.0187 86.829C32.62 89.7475 30.9899 91.6841 28.1269 92.638C24.3129 93.0721 20.644 93.7857 17.1204 94.7781C11.821 94.7781 6.52161 94.7781 1.22217 94.7781C1.22217 93.5552 1.22217 92.3322 1.22217 91.1093C1.91105 91.4896 2.52252 91.999 3.05658 92.638C6.69007 93.4977 10.3589 93.7013 14.0631 93.2494C15.2106 91.9617 16.6374 91.1466 18.3434 90.8035C21.8586 90.7131 25.3233 90.3058 28.7384 89.5806C30.1044 88.5105 31.5316 87.5933 33.0187 86.829Z" fill="#CDD0D0"/>
<path fill-rule="evenodd" clip-rule="evenodd" d="M95.3885 0.61145C96.2036 32.2044 96.2036 63.7967 95.3885 95.3896C87.942 95.5902 80.6043 95.3866 73.3755 94.7782C74.1839 94.8821 74.8974 94.6785 75.5156 94.1667C75.0986 91.7391 76.0158 89.9047 78.2673 88.6634C81.2256 88.7338 83.9772 88.1223 86.5221 86.829C87.0003 88.4727 87.9175 89.0841 89.2738 88.6634C89.7146 90.0001 90.1219 91.3252 90.4967 92.638C90.2173 92.8912 90.013 93.1969 89.8852 93.5552C91.5766 94.5513 93.411 94.9585 95.3885 94.7782C95.3885 89.2749 95.3885 83.7717 95.3885 78.2684C95.3885 77.8606 95.3885 77.4533 95.3885 77.0455C95.3885 72.5615 95.3885 68.077 95.3885 63.5931C95.3885 52.9944 95.3885 42.3952 95.3885 31.7965C95.3885 27.1084 95.3885 22.4208 95.3885 17.7327C95.3885 15.2868 95.3885 12.8409 95.3885 10.395C95.3885 8.15274 95.3885 5.91108 95.3885 3.66881C95.3885 2.85372 95.3885 2.03801 95.3885 1.22292C95.3885 1.0193 95.3885 0.81507 95.3885 0.61145Z" fill="#CDD0D0"/>
<path fill-rule="evenodd" clip-rule="evenodd" d="M0.610494 1.2229C0.411765 5.82056 0.61563 10.3045 1.22197 14.6753C1.22197 14.8789 1.22197 15.0831 1.22197 15.2868C1.22197 16.1019 1.22197 16.9176 1.22197 17.7326C1.22197 19.1592 1.22197 20.5864 1.22197 22.013C1.22197 22.828 1.22197 23.6437 1.22197 24.4588C1.22197 46.6755 1.22197 68.8927 1.22197 91.1093C1.22197 92.3322 1.22197 93.5552 1.22197 94.7781C6.52141 94.7781 11.8208 94.7781 17.1202 94.7781C35.8723 94.7781 54.6237 94.7781 73.3757 94.7781C80.6045 95.3866 87.9422 95.5902 95.3887 95.3896C63.874 96.2035 32.2811 96.2035 0.610494 95.3896C-0.203498 63.9 -0.203498 32.5107 0.610494 1.2229Z" fill="#CDD0D0"/>
</svg>
