<svg width="304" height="96" viewBox="0 0 304 96" fill="none" xmlns="http://www.w3.org/2000/svg">
<path d="M186.712 53.2865H186.633C186.286 54.1405 185.621 54.8677 184.277 54.8677C182.632 54.8677 181.525 53.7451 181.525 51.7682V46.518H183.249V51.5152C183.249 52.8121 183.834 53.4602 184.941 53.4602C185.827 53.4602 186.712 53.0016 186.712 52.0528V46.518H188.436V54.6781H186.712V53.2865Z" fill="#CDD0D0"/>
<path d="M191.097 54.678V46.518H192.821V47.9096H192.9C193.247 47.0556 193.912 46.3279 195.257 46.3279C196.901 46.3279 198.008 47.451 198.008 49.4276V54.678H196.284V49.6806C196.284 48.384 195.699 47.7353 194.592 47.7353C193.706 47.7353 192.821 48.1942 192.821 49.143V54.678H191.097Z" fill="#CDD0D0"/>
<path d="M205.776 51.958V49.2379C205.776 48.2414 204.922 47.7354 203.926 47.7354C202.629 47.7354 201.885 48.6053 201.885 49.9337V51.2622C201.885 52.5907 202.629 53.4602 203.926 53.4602C204.922 53.4602 205.776 52.9542 205.776 51.958ZM205.776 53.2865H205.682C205.207 54.2672 204.416 54.8677 203.214 54.8677C201.301 54.8677 200.067 53.3971 200.067 50.598C200.067 47.7989 201.301 46.328 203.214 46.328C204.416 46.328 205.207 46.929 205.682 47.9094H205.776V42.9755H207.5V54.6781H205.776V53.2865Z" fill="#CDD0D0"/>
<path d="M214.841 52.2428V51.0565H213.307C212.042 51.0565 211.441 51.4519 211.441 52.1793V52.4955C211.441 53.2229 212.01 53.6029 212.927 53.6029C214.034 53.6029 214.841 53.0492 214.841 52.2428ZM216.533 54.678C215.553 54.678 215.063 54.1244 214.967 53.3019H214.888C214.572 54.2826 213.718 54.8679 212.438 54.8679C210.777 54.8679 209.702 53.9348 209.702 52.4005C209.702 50.8193 210.856 49.9652 213.276 49.9652H214.841V49.3326C214.841 48.2413 214.256 47.6721 213.085 47.6721C212.042 47.6721 211.425 48.1152 210.982 48.795L209.955 47.957C210.413 47.0711 211.52 46.3278 213.244 46.3278C215.3 46.3278 216.565 47.3559 216.565 49.222V53.318H217.592V54.678H216.533Z" fill="#CDD0D0"/>
<path d="M226.453 48.2574L225.109 48.9848C224.824 48.2258 224.223 47.7514 223.274 47.7514C221.977 47.7514 221.218 48.6213 221.218 49.9179V51.2779C221.218 52.5587 221.961 53.4447 223.306 53.4447C224.318 53.4447 224.935 52.9387 225.314 52.1478L226.579 52.9226C226.073 54.0454 225.061 54.8202 223.432 54.8679L223.274 55.595L223.338 55.6585C223.559 55.595 223.796 55.5479 224.018 55.5479C224.634 55.5479 225.125 55.896 225.125 56.6231C225.125 57.5877 224.223 57.9832 223.227 57.9832C222.278 57.9832 221.74 57.6193 221.503 57.3189L222.152 56.5757C222.341 56.8129 222.673 57.0185 223.148 57.0185C223.543 57.0185 223.843 56.8764 223.843 56.5602C223.843 56.3069 223.654 56.0381 222.721 55.9273L222.326 55.8799L222.547 54.8047C220.57 54.5038 219.416 52.9226 219.416 50.5979C219.416 47.9886 220.87 46.3279 223.274 46.3279C224.951 46.3279 225.947 47.1188 226.453 48.2574Z" fill="#CDD0D0"/>
<path d="M233.826 52.2428V51.0565H232.292C231.027 51.0565 230.425 51.4519 230.425 52.1793V52.4955C230.425 53.2229 230.995 53.6029 231.912 53.6029C233.019 53.6029 233.826 53.0492 233.826 52.2428ZM232.213 44.7625C231.738 44.5253 231.374 44.3986 231.043 44.3986C230.695 44.3986 230.441 44.5408 230.125 44.8101L229.477 43.9877C229.793 43.4972 230.331 43.0862 231.106 43.0862C231.628 43.0862 231.991 43.2758 232.339 43.4495C232.814 43.687 233.177 43.8133 233.51 43.8133C233.857 43.8133 234.11 43.6712 234.427 43.4024L235.075 44.2249C234.759 44.7151 234.221 45.126 233.447 45.126C232.924 45.126 232.561 44.9362 232.213 44.7625ZM235.518 54.678C234.538 54.678 234.047 54.1244 233.952 53.3019H233.873C233.557 54.2826 232.703 54.8679 231.422 54.8679C229.762 54.8679 228.686 53.9348 228.686 52.4005C228.686 50.8193 229.841 49.9652 232.26 49.9652H233.826V49.3326C233.826 48.2413 233.24 47.6721 232.07 47.6721C231.027 47.6721 230.41 48.1152 229.967 48.795L228.939 47.957C229.398 47.0711 230.505 46.3278 232.228 46.3278C234.285 46.3278 235.55 47.3559 235.55 49.222V53.318H236.577V54.678H235.518Z" fill="#CDD0D0"/>
<path d="M244.046 51.2147V49.9813C244.046 48.463 243.224 47.6882 241.974 47.6882C240.725 47.6882 239.903 48.463 239.903 49.9813V51.2147C239.903 52.733 240.725 53.5078 241.974 53.5078C243.224 53.5078 244.046 52.733 244.046 51.2147ZM238.1 50.5981C238.1 47.9886 239.571 46.3278 241.974 46.3278C244.378 46.3278 245.849 47.9886 245.849 50.5981C245.849 53.2074 244.378 54.8678 241.974 54.8678C239.571 54.8678 238.1 53.2074 238.1 50.5981Z" fill="#CDD0D0"/>
<path d="M177.648 70.2469V68.9184C177.648 67.59 176.904 66.7201 175.608 66.7201C174.611 66.7201 173.757 67.2261 173.757 68.2226V70.9427C173.757 71.9389 174.611 72.445 175.608 72.445C176.904 72.445 177.648 71.5754 177.648 70.2469ZM172.033 65.5025H173.757V66.8941H173.852C174.326 65.9137 175.117 65.3124 176.319 65.3124C178.232 65.3124 179.466 66.7836 179.466 69.5827C179.466 72.3818 178.232 73.8524 176.319 73.8524C175.117 73.8524 174.326 73.2516 173.852 72.2712H173.757V76.8258H172.033V65.5025Z" fill="#CDD0D0"/>
<path d="M186.365 71.2275V70.0412H184.831C183.566 70.0412 182.964 70.4366 182.964 71.164V71.4802C182.964 72.2076 183.534 72.5875 184.451 72.5875C185.558 72.5875 186.365 72.0339 186.365 71.2275ZM188.057 73.6627C187.077 73.6627 186.586 73.109 186.491 72.2866H186.412C186.096 73.2673 185.242 73.8525 183.961 73.8525C182.3 73.8525 181.225 72.9195 181.225 71.3851C181.225 69.8039 182.379 68.9499 184.799 68.9499H186.365V68.3172C186.365 67.226 185.779 66.6568 184.609 66.6568C183.566 66.6568 182.949 67.0999 182.506 67.7796L181.478 66.9417C181.937 66.0557 183.043 65.3125 184.767 65.3125C186.823 65.3125 188.089 66.3406 188.089 68.2067V72.3027H189.116V73.6627H188.057Z" fill="#CDD0D0"/>
<path d="M190.971 72.2712H193.137V66.8941H190.971V65.5027H194.861V67.6692H194.956C195.272 66.5302 195.984 65.5027 197.644 65.5027H198.624V67.1471H197.012C195.604 67.1471 194.861 68.0801 194.861 69.2188V72.2712H197.819V73.6628H190.971V72.2712Z" fill="#CDD0D0"/>
<path d="M205.349 71.2275V70.0412H203.815C202.55 70.0412 201.949 70.4366 201.949 71.164V71.4802C201.949 72.2076 202.518 72.5875 203.435 72.5875C204.542 72.5875 205.349 72.0339 205.349 71.2275ZM207.041 73.6627C206.061 73.6627 205.571 73.109 205.475 72.2866H205.396C205.08 73.2673 204.226 73.8525 202.946 73.8525C201.285 73.8525 200.21 72.9195 200.21 71.3851C200.21 69.8039 201.364 68.9499 203.784 68.9499H205.349V68.3172C205.349 67.226 204.764 66.6568 203.593 66.6568C202.55 66.6568 201.933 67.0999 201.49 67.7796L200.463 66.9417C200.921 66.0557 202.028 65.3125 203.752 65.3125C205.808 65.3125 207.073 66.3406 207.073 68.2067V72.3027H208.1V73.6627H207.041Z" fill="#CDD0D0"/>
<path d="M224.334 71.2275V70.0412H222.8C221.535 70.0412 220.933 70.4366 220.933 71.164V71.4802C220.933 72.2076 221.503 72.5875 222.42 72.5875C223.527 72.5875 224.334 72.0339 224.334 71.2275ZM226.026 73.6627C225.046 73.6627 224.555 73.109 224.46 72.2866H224.381C224.065 73.2673 223.211 73.8525 221.93 73.8525C220.27 73.8525 219.194 72.9195 219.194 71.3851C219.194 69.8039 220.349 68.9499 222.768 68.9499H224.334V68.3172C224.334 67.226 223.748 66.6568 222.578 66.6568C221.535 66.6568 220.918 67.0999 220.475 67.7796L219.447 66.9417C219.906 66.0557 221.013 65.3125 222.736 65.3125C224.793 65.3125 226.058 66.3406 226.058 68.2067V72.3027H227.085V73.6627H226.026Z" fill="#CDD0D0"/>
<path d="M238.147 68.1436C238.147 64.4904 239.492 62.4342 242.291 62.4342C244.426 62.4342 245.406 63.6682 245.912 65.1702L244.315 65.708C243.982 64.6958 243.524 63.9054 242.275 63.9054C240.709 63.9054 240.029 65.1862 240.029 67.2105V69.0766C240.029 71.1009 240.709 72.3817 242.275 72.3817C243.524 72.3817 243.982 71.5908 244.315 70.5788L245.912 71.1164C245.406 72.6189 244.426 73.8523 242.291 73.8523C239.492 73.8523 238.147 71.7967 238.147 68.1436Z" fill="#CDD0D0"/>
<path d="M250.786 63.083V62.7507C250.786 62.2289 251.103 61.8177 251.957 61.8177C252.826 61.8177 253.143 62.2289 253.143 62.7507V63.083C253.143 63.6045 252.826 64.016 251.973 64.016C251.103 64.016 250.786 63.6045 250.786 63.083ZM248.319 72.2711H251.103V66.8941H248.319V65.5027H252.826V72.2711H255.435V73.6628H248.319V72.2711Z" fill="#CDD0D0"/>
<path d="M258.902 68.7919V68.9024H262.998V68.7442C262.998 67.4634 262.208 66.6254 261.005 66.6254C259.772 66.6254 258.902 67.5268 258.902 68.7919ZM261.844 61.4221L263.741 63.7947L262.824 64.4587L260.958 62.6245L259.076 64.4587L258.206 63.7947L260.104 61.4221H261.844ZM257.163 69.5982C257.163 66.9732 258.68 65.3124 261.005 65.3124C263.299 65.3124 264.753 66.9574 264.753 69.361V70.0098H258.902V70.2786C258.902 71.5594 259.757 72.4608 261.163 72.4608C262.208 72.4608 262.966 71.9703 263.425 71.2116L264.501 72.1604C263.947 73.1092 262.808 73.8524 261.132 73.8524C258.633 73.8524 257.163 72.192 257.163 69.5982Z" fill="#CDD0D0"/>
<path d="M267.035 73.6627V65.5026H268.759V66.8943H268.838C269.185 66.0402 269.85 65.3125 271.194 65.3125C272.839 65.3125 273.946 66.4357 273.946 68.4123V73.6627H272.222V68.6653C272.222 67.3687 271.637 66.72 270.53 66.72C269.644 66.72 268.759 67.1789 268.759 68.1277V73.6627H267.035Z" fill="#CDD0D0"/>
<path d="M276.369 69.5827C276.369 66.9734 277.823 65.3124 280.227 65.3124C281.904 65.3124 282.9 66.1033 283.407 67.2422L282.062 67.9693C281.778 67.2106 281.176 66.7359 280.227 66.7359C278.931 66.7359 278.172 67.6061 278.172 68.9024V70.2624C278.172 71.5435 278.915 72.4295 280.259 72.4295C281.271 72.4295 281.888 71.9232 282.267 71.1323L283.533 71.9074C283.011 73.046 281.951 73.8524 280.243 73.8524C277.808 73.8524 276.369 72.192 276.369 69.5827Z" fill="#CDD0D0"/>
<path d="M288.755 63.083V62.7507C288.755 62.2289 289.071 61.8177 289.925 61.8177C290.795 61.8177 291.111 62.2289 291.111 62.7507V63.083C291.111 63.6045 290.795 64.016 289.941 64.016C289.071 64.016 288.755 63.6045 288.755 63.083ZM286.287 72.2711H289.071V66.8941H286.287V65.5027H290.795V72.2711H293.404V73.6628H286.287V72.2711Z" fill="#CDD0D0"/>
<path d="M300.272 71.2275V70.0412H298.737C297.473 70.0412 296.871 70.4366 296.871 71.164V71.4802C296.871 72.2076 297.441 72.5875 298.358 72.5875C299.465 72.5875 300.272 72.0339 300.272 71.2275ZM301.964 73.6627C300.984 73.6627 300.493 73.109 300.398 72.2866H300.319C300.003 73.2673 299.149 73.8525 297.868 73.8525C296.208 73.8525 295.132 72.9195 295.132 71.3851C295.132 69.8039 296.286 68.9499 298.706 68.9499H300.272V68.3172C300.272 67.226 299.686 66.6568 298.516 66.6568C297.473 66.6568 296.856 67.0999 296.413 67.7796L295.385 66.9417C295.844 66.0557 296.95 65.3125 298.674 65.3125C300.731 65.3125 301.996 66.3406 301.996 68.2067V72.3027H303.023V73.6627H301.964Z" fill="#CDD0D0"/>
<path d="M173.472 87.7765V87.8871H177.569V87.7288C177.569 86.448 176.778 85.6101 175.575 85.6101C174.342 85.6101 173.472 86.5115 173.472 87.7765ZM171.733 88.5829C171.733 85.9578 173.251 84.2971 175.575 84.2971C177.869 84.2971 179.324 85.942 179.324 88.3457V88.9944H173.472V89.2632C173.472 90.544 174.326 91.4454 175.734 91.4454C176.778 91.4454 177.536 90.955 177.995 90.1962L179.071 91.1451C178.517 92.0939 177.378 92.8371 175.703 92.8371C173.204 92.8371 171.733 91.1767 171.733 88.5829Z" fill="#CDD0D0"/>
<path d="M195.857 90.2122V89.0258H194.323C193.058 89.0258 192.457 89.4213 192.457 90.1487V90.4649C192.457 91.1923 193.026 91.5722 193.943 91.5722C195.05 91.5722 195.857 91.0185 195.857 90.2122ZM197.549 92.6474C196.569 92.6474 196.079 92.0937 195.983 91.2713H195.904C195.588 92.252 194.734 92.8372 193.454 92.8372C191.793 92.8372 190.718 91.9042 190.718 90.3698C190.718 88.7886 191.872 87.9346 194.292 87.9346H195.857V87.3019C195.857 86.2107 195.272 85.6415 194.102 85.6415C193.058 85.6415 192.441 86.0846 191.998 86.7643L190.971 85.9264C191.429 85.0404 192.536 84.2972 194.26 84.2972C196.316 84.2972 197.581 85.3253 197.581 87.1914V91.2873H198.608V92.6474H197.549Z" fill="#CDD0D0"/>
<path d="M214.383 83.0954V92.6474H212.611V83.0954H209.148V81.6092H217.846V83.0954H214.383Z" fill="#CDD0D0"/>
<path d="M220.933 87.7765V87.8871H225.03V87.7288C225.03 86.448 224.239 85.6101 223.037 85.6101C221.803 85.6101 220.933 86.5115 220.933 87.7765ZM219.194 88.5829C219.194 85.9578 220.712 84.2971 223.037 84.2971C225.33 84.2971 226.785 85.942 226.785 88.3457V88.9944H220.933V89.2632C220.933 90.544 221.787 91.4454 223.195 91.4454C224.239 91.4454 224.998 90.955 225.456 90.1962L226.532 91.1451C225.979 92.0939 224.84 92.8371 223.164 92.8371C220.665 92.8371 219.194 91.1767 219.194 88.5829Z" fill="#CDD0D0"/>
<path d="M228.908 88.5673C228.908 85.9581 230.362 84.2971 232.766 84.2971C234.443 84.2971 235.439 85.0879 235.945 86.2269L234.601 86.954C234.316 86.1953 233.715 85.7206 232.766 85.7206C231.469 85.7206 230.71 86.5907 230.71 87.887V89.2471C230.71 90.5282 231.453 91.4141 232.798 91.4141C233.81 91.4141 234.427 90.9078 234.806 90.1169L236.071 90.892C235.55 92.0307 234.49 92.8371 232.782 92.8371C230.346 92.8371 228.908 91.1766 228.908 88.5673Z" fill="#CDD0D0"/>
<path d="M238.558 92.6474V84.4873H240.282V85.879H240.361C240.709 85.0249 241.374 84.2972 242.718 84.2972C244.362 84.2972 245.469 85.4204 245.469 87.397V92.6474H243.745V87.65C243.745 86.3534 243.16 85.7047 242.053 85.7047C241.167 85.7047 240.282 86.1636 240.282 87.1124V92.6474H238.558Z" fill="#CDD0D0"/>
<path d="M253.538 89.1841V87.9506C253.538 86.4324 252.716 85.6576 251.466 85.6576C250.217 85.6576 249.395 86.4324 249.395 87.9506V89.1841C249.395 90.7024 250.217 91.4772 251.466 91.4772C252.716 91.4772 253.538 90.7024 253.538 89.1841ZM247.592 88.5675C247.592 85.9579 249.062 84.2972 251.466 84.2972C253.87 84.2972 255.34 85.9579 255.34 88.5675C255.34 91.1768 253.87 92.8372 251.466 92.8372C249.062 92.8372 247.592 91.1768 247.592 88.5675Z" fill="#CDD0D0"/>
<path d="M257.4 91.2558H260.104V82.3365H257.4V80.9448H261.828V91.2558H264.532V92.6475H257.4V91.2558Z" fill="#CDD0D0"/>
<path d="M272.522 89.1841V87.9506C272.522 86.4324 271.7 85.6576 270.451 85.6576C269.202 85.6576 268.379 86.4324 268.379 87.9506V89.1841C268.379 90.7024 269.202 91.4772 270.451 91.4772C271.7 91.4772 272.522 90.7024 272.522 89.1841ZM266.577 88.5675C266.577 85.9579 268.047 84.2972 270.451 84.2972C272.854 84.2972 274.325 85.9579 274.325 88.5675C274.325 91.1768 272.854 92.8372 270.451 92.8372C268.047 92.8372 266.577 91.1768 266.577 88.5675Z" fill="#CDD0D0"/>
<path d="M281.508 87.3655V86.9385C281.508 86.0686 280.987 85.4834 279.88 85.4834C278.773 85.4834 278.251 86.0686 278.251 86.9385V87.3655C278.251 88.2351 278.773 88.8201 279.88 88.8201C280.987 88.8201 281.508 88.2351 281.508 87.3655ZM281.066 92.7426H278.235C277.84 92.9321 277.634 93.2325 277.634 93.6595C277.634 94.2761 278.109 94.7824 279.31 94.7824H280.592C281.888 94.7824 282.6 94.3869 282.6 93.6434C282.6 93.0903 282.22 92.7426 281.066 92.7426ZM279.927 96C277.112 96 276.131 95.2568 276.131 94.0389C276.131 93.1535 276.653 92.6949 277.555 92.4577V92.2995C277.002 92.0938 276.653 91.7303 276.653 91.1131C276.653 90.3068 277.27 89.9429 278.124 89.7376V89.6586C277.144 89.2 276.559 88.3301 276.559 87.1599C276.559 85.4205 277.871 84.297 279.88 84.297C280.449 84.297 280.971 84.3921 281.413 84.5664V84.297C281.413 83.665 281.778 83.1903 282.505 83.1903H283.991V84.5503H282.093V84.93C282.805 85.4205 283.201 86.1792 283.201 87.1599C283.201 88.8993 281.888 90.0064 279.88 90.0064C279.516 90.0064 279.184 89.9748 278.868 89.9113C278.488 90.0064 278.014 90.2594 278.014 90.7022C278.014 91.2082 278.567 91.2714 279.279 91.2714H281.113C283.311 91.2714 284.213 92.1889 284.213 93.5329C284.213 95.2091 282.805 96 279.927 96Z" fill="#CDD0D0"/>
<path d="M288.755 82.0676V81.7354C288.755 81.2136 289.071 80.8024 289.925 80.8024C290.795 80.8024 291.111 81.2136 291.111 81.7354V82.0676C291.111 82.5892 290.795 83.0007 289.941 83.0007C289.071 83.0007 288.755 82.5892 288.755 82.0676ZM286.287 91.2558H289.071V85.8787H286.287V84.4874H290.795V91.2558H293.404V92.6475H286.287V91.2558Z" fill="#CDD0D0"/>
<path d="M300.272 90.2122V89.0258H298.737C297.473 89.0258 296.871 89.4213 296.871 90.1487V90.4649C296.871 91.1923 297.441 91.5722 298.358 91.5722C299.465 91.5722 300.272 91.0185 300.272 90.2122ZM301.964 92.6474C300.984 92.6474 300.493 92.0937 300.398 91.2713H300.319C300.003 92.252 299.149 92.8372 297.868 92.8372C296.208 92.8372 295.132 91.9042 295.132 90.3698C295.132 88.7886 296.286 87.9346 298.706 87.9346H300.272V87.3019C300.272 86.2107 299.686 85.6415 298.516 85.6415C297.473 85.6415 296.856 86.0846 296.413 86.7643L295.385 85.9264C295.844 85.0404 296.95 84.2972 298.674 84.2972C300.731 84.2972 301.996 85.3253 301.996 87.1914V91.2873H303.023V92.6474H301.964Z" fill="#CDD0D0"/>
<path d="M25.4256 38.9713H44.8116V47.3095H25.4256V84.4613H44.8116V92.7991H0V84.4613H15.9767V47.3095H0V38.9713H12.5338C14.4351 38.9713 15.9767 37.4301 15.9767 35.5287V30.2849C15.9767 28.1543 16.823 26.1111 18.3295 24.6046L27.2865 15.6476C28.793 14.1411 30.8363 13.3404 32.9668 13.3404H44.8116V21.6329H25.4256V38.9713Z" fill="#CDD0D0"/>
<path d="M71.2374 13.3403H91.485V21.6784H63.5532V62.3355H91.485V70.6734H71.2374C69.1069 70.6734 67.0636 69.8271 65.5571 68.3205L56.456 59.2194C54.9495 57.7129 54.1031 55.6696 54.1031 53.5391V30.4746C54.1031 28.3441 54.9495 26.3008 56.456 24.7943L65.5571 15.6931C67.0636 14.1866 69.1069 13.3403 71.2374 13.3403Z" fill="#CDD0D0"/>
<path d="M115.966 54.3149V21.6783H100.258V13.3404H112.523C114.424 13.3404 115.966 11.7989 115.966 9.8975V1.97918e-05H125.415V13.3404H145.788V21.6783H125.415V62.3354H145.788V70.6735H131.283C128.967 70.6735 126.763 69.6735 125.238 67.9301L117.953 59.6046C116.672 58.1403 115.966 56.2608 115.966 54.3149Z" fill="#CDD0D0"/>
<path d="M172.144 54.678V43.6396H179.245V45.126H173.915V48.3364H178.755V49.8231H173.915V54.678H172.144Z" fill="#CDD0D0"/>
<path d="M54.1033 92.7993H145.788V84.4627H54.1033V92.7993Z" fill="#CDD0D0"/>
</svg>
