<svg width="688" height="96" viewBox="0 0 688 96" fill="none" xmlns="http://www.w3.org/2000/svg">
<path fill-rule="evenodd" clip-rule="evenodd" d="M102.626 0.0560177C104.321 -0.187923 105.646 0.364921 106.604 1.71322C105.85 4.87782 104.635 7.86079 102.958 10.6621C97.646 19.2902 91.5694 27.3555 84.7284 34.8573C92.63 41.6578 99.3695 49.5017 104.946 58.3896C109.926 67.4645 114.566 76.7448 118.867 86.2306C119.453 87.6499 119.121 88.7542 117.873 89.545C113.192 87.978 108.772 85.8787 104.615 83.2477C90.7878 72.8451 76.8673 62.5704 62.8533 52.4237C60.8441 55.9018 59.4083 59.6584 58.5446 63.6927C54.4619 71.8607 50.0425 79.8153 45.287 87.5564C43.2115 90.2961 40.8914 92.8369 38.3267 95.1795C37.3032 95.9664 36.1982 96.1871 35.0123 95.8424C34.1751 90.2311 34.2851 84.5966 35.3437 78.9389C37.3828 68.0272 40.3657 57.4211 44.2926 47.1206C29.6105 46.294 15.2478 43.7532 1.20532 39.4975C-0.137019 38.706 -0.358421 37.7117 0.542435 36.5145C5.8614 32.695 11.8273 30.5963 18.4402 30.2171C27.3229 29.7942 36.1611 30.015 44.9555 30.88C41.3925 26.5202 38.4096 21.7694 36.0066 16.6281C34.9718 14.534 34.8611 12.4347 35.6752 10.3307C36.7364 10.1497 37.7308 9.81828 38.6581 9.33636C42.3086 10.4984 45.9545 11.7141 49.5957 12.9822C54.8232 15.7014 59.6847 18.9051 64.1791 22.594C77.033 15.065 89.8485 7.55255 102.626 0.0560177Z" fill="#CDD0D0"/>
<path fill-rule="evenodd" clip-rule="evenodd" d="M543.443 12.6507C551.563 12.1701 559.517 13.0537 567.306 15.3022C567.863 18.8069 568.089 22.342 567.969 25.9084C566.842 26.0144 565.735 25.9044 564.655 25.5769C561.586 19.4545 556.614 16.2508 549.74 15.9651C541.235 16.0473 535.495 20.246 532.505 28.5599C529.913 37.8873 531.02 46.7255 535.819 55.0751C544.079 63.2796 553.247 64.4947 563.329 58.721C564.178 57.1148 565.397 55.8998 566.975 55.0751C568.228 55.3151 568.778 56.0887 568.632 57.3952C568.148 60.0156 567.267 62.4457 565.981 64.6869C554.818 67.5227 543.993 66.6391 533.499 62.0354C520.56 53.0474 517.139 41.2262 523.225 26.5712C527.918 18.8878 534.653 14.2476 543.443 12.6507Z" fill="#CDD0D0"/>
<path fill-rule="evenodd" clip-rule="evenodd" d="M154.331 20.6053C153.673 26.2292 153.452 31.9744 153.668 37.8402C157.991 38.0544 162.189 37.8336 166.263 37.1774C168.015 36.7505 169.12 35.6454 169.577 33.863C170.365 33.2471 171.249 33.0264 172.229 33.2001C172.229 37.3981 172.229 41.5968 172.229 45.7948C170.001 46.2655 168.786 45.3812 168.583 43.1433C168.086 42.7283 167.533 42.3969 166.926 42.149C162.77 41.3157 158.572 40.9843 154.331 41.1547C154.221 48.0082 154.331 54.8577 154.662 61.704C155.62 62.8011 156.835 63.2432 158.308 63.0297C158.308 63.9134 158.308 64.7977 158.308 65.6813C152.786 64.8414 147.262 64.8414 141.736 65.6813C141.736 64.7977 141.736 63.9134 141.736 63.0297C143.329 63.1007 144.544 62.4378 145.382 61.0411C146 46.8568 145.558 32.7155 144.056 18.6167C143.101 17.7085 141.996 17.0456 140.742 16.628C140.422 15.9996 140.312 15.3367 140.41 14.6394C151.919 14.823 163.409 14.6023 174.88 13.9765C174.99 17.0781 174.88 20.1711 174.549 23.2568C174.068 23.6274 173.516 23.8481 172.892 23.9197C171.437 21.6977 169.449 20.0405 166.926 18.9481C162.733 18.6167 158.535 18.5066 154.331 18.6167C154.331 19.2796 154.331 19.9424 154.331 20.6053Z" fill="#CDD0D0"/>
<path fill-rule="evenodd" clip-rule="evenodd" d="M284.256 13.3136C286.397 13.1392 287.285 14.1336 286.907 16.2965C286.158 30.3172 286.052 44.3484 286.576 58.3895C288.061 59.3646 289.718 60.0275 291.548 60.3782C289.314 62.4384 286.994 64.4271 284.587 66.3441C282.194 65.4996 280.431 63.9531 279.284 61.7039C272.019 68.2207 264.953 67.7786 258.072 60.3782C253.677 52.5701 254.234 45.1677 259.729 38.1716C265.41 34.317 271.489 33.5441 277.959 35.8516C278.403 31.4321 278.403 27.0133 277.959 22.5939C277.037 21.5254 276.043 20.531 274.976 19.6109C275.068 19.0992 275.294 18.6571 275.638 18.2852C279.158 17.6322 282.035 15.975 284.256 13.3136ZM269.01 37.8402C273.073 36.9473 276.056 38.2731 277.959 41.8175C278.959 47.5269 279.178 53.2721 278.621 59.0524C271.224 62.8706 266.365 60.6612 264.038 52.4236C262.493 46.3383 264.151 41.4774 269.01 37.8402Z" fill="#CDD0D0"/>
<path fill-rule="evenodd" clip-rule="evenodd" d="M448.651 13.9764C453.563 12.8237 455.995 14.7016 455.942 19.6109C455.929 21.5498 455.598 23.4285 454.948 25.2454C453.662 27.5973 452.555 30.0274 451.634 32.5371C450.898 33.556 449.904 33.9974 448.651 33.8629C449.314 30.3324 449.976 26.7972 450.639 23.2568C450.527 22.1517 450.421 21.0474 450.308 19.9424C449.188 18.9368 448.193 17.8317 447.325 16.6279C447.776 15.7264 448.22 14.8428 448.651 13.9764Z" fill="#CDD0D0"/>
<path fill-rule="evenodd" clip-rule="evenodd" d="M458.594 13.9764C463.506 12.8237 465.938 14.7016 465.885 19.6109C465.872 21.5498 465.541 23.4285 464.891 25.2454C463.605 27.5973 462.498 30.0274 461.577 32.5371C460.841 33.556 459.847 33.9974 458.594 33.8629C459.257 30.3324 459.919 26.7972 460.582 23.2568C460.47 22.1517 460.364 21.0474 460.251 19.9424C459.131 18.9368 458.136 17.8317 457.268 16.6279C457.719 15.7264 458.163 14.8428 458.594 13.9764Z" fill="#CDD0D0"/>
<path fill-rule="evenodd" clip-rule="evenodd" d="M478.48 13.9765C479.362 13.9765 480.25 13.9765 481.132 13.9765C480.396 29.8744 480.29 45.7836 480.8 61.704C482.239 62.3728 483.014 63.4779 483.12 65.0184C478.679 65.2371 474.258 65.0164 469.863 64.3555C470.771 63.4003 471.765 62.5167 472.846 61.704C473.29 51.54 473.29 41.3754 472.846 31.2114C472.733 27.8413 472.289 24.5269 471.52 21.2682C470.3 20.9036 469.306 20.2407 468.537 19.2796C471.99 17.7609 475.305 15.9937 478.48 13.9765Z" fill="#CDD0D0"/>
<path fill-rule="evenodd" clip-rule="evenodd" d="M670.053 13.9765C674.945 12.8661 677.597 14.7448 678.008 19.611C676.635 24.2339 674.978 28.7634 673.036 33.2C672.135 33.7834 671.14 34.0048 670.053 33.8629C670.862 30.2138 671.75 26.5679 672.705 22.9254C672.565 22.0199 672.347 21.1363 672.042 20.2738C670.829 19.1715 669.722 17.9564 668.727 16.628C669.178 15.7265 669.622 14.8429 670.053 13.9765Z" fill="#CDD0D0"/>
<path fill-rule="evenodd" clip-rule="evenodd" d="M679.996 13.9765C685.154 12.4963 687.805 14.3749 687.951 19.611C686.579 24.2339 684.922 28.7634 682.979 33.2001C682.078 33.7834 681.083 34.0048 679.996 33.863C680.805 30.2138 681.693 26.5679 682.648 22.9254C682.509 22.0199 682.29 21.1363 681.985 20.2739C680.772 19.1715 679.665 17.9564 678.671 16.628C679.121 15.7265 679.565 14.8429 679.996 13.9765Z" fill="#CDD0D0"/>
<path fill-rule="evenodd" clip-rule="evenodd" d="M363.802 28.5598C362.688 28.7023 362.025 28.2602 361.813 27.2341C362.589 22.2094 365.466 20.1101 370.431 20.9367C373.235 23.0102 376.33 23.8945 379.711 23.5882C380.407 21.1892 381.958 20.3056 384.351 20.9367C383.304 25.5165 380.546 28.2788 376.065 29.2227C373.069 27.9639 370.086 26.6381 367.116 25.2454C365.333 25.7021 364.226 26.8072 363.802 28.5598Z" fill="#CDD0D0"/>
<path fill-rule="evenodd" clip-rule="evenodd" d="M606.416 21.931C611.441 23.0142 612.323 25.5557 609.068 29.5542C605.813 30.4955 603.606 29.3904 602.439 26.2398C603.003 24.0211 604.328 22.5853 606.416 21.931Z" fill="#CDD0D0"/>
<path fill-rule="evenodd" clip-rule="evenodd" d="M361.813 27.2341C362.025 28.2602 362.688 28.7024 363.802 28.5598C363.092 29.179 362.211 29.4004 361.15 29.2227C360.991 28.3669 361.216 27.7041 361.813 27.2341Z" fill="#CDD0D0"/>
<path fill-rule="evenodd" clip-rule="evenodd" d="M227.911 33.8629C228.985 34.5848 229.535 35.6898 229.568 37.1773C233.545 34.7167 237.854 33.9431 242.494 34.8572C246.465 36.8041 248.341 40.0085 248.129 44.469C248.348 50.435 248.573 56.4009 248.792 62.3668C250.045 63.1073 250.601 64.2123 250.449 65.6812C246.313 65.0561 242.223 64.8347 238.186 65.0184C238.007 63.6329 238.67 62.7486 240.174 62.3668C240.618 56.1802 240.618 49.9928 240.174 43.8061C239.783 40.9876 238.239 39.2197 235.534 38.5031C233.612 38.7225 231.623 39.3854 229.568 40.4917C229.124 47.7834 229.124 55.0751 229.568 62.3668C231.073 62.7486 231.736 63.6329 231.557 65.0184C227.301 64.8109 222.992 65.0316 218.631 65.6812C218.483 63.9485 219.256 62.8434 220.951 62.3668C221.551 55.036 221.331 47.7443 220.288 40.4917C219.618 39.9369 218.844 39.7162 217.968 39.8289C217.855 38.9525 218.076 38.1789 218.631 37.5088C222.018 36.8618 225.114 35.6467 227.911 33.8629Z" fill="#CDD0D0"/>
<path fill-rule="evenodd" clip-rule="evenodd" d="M307.457 33.8629C311.606 33.8404 315.252 35.1661 318.394 37.8402C319.051 39.3502 319.601 40.8967 320.052 42.4804C319.541 47.8709 319.428 53.3947 319.72 59.0524C321.159 59.9731 322.597 60.8568 324.029 61.7039C322.246 63.4838 320.257 65.0303 318.063 66.3441C315.942 65.6567 314.059 64.5523 312.428 63.0297C305.733 68.0716 299.993 67.1873 295.193 60.3782C294.067 53.8992 296.612 49.5904 302.817 47.452C305.866 46.7082 308.962 46.3768 312.097 46.4576C312.389 40.672 309.737 38.3519 304.142 39.4974C302.624 40.3525 301.299 41.4575 300.165 42.8118C299.535 43.132 298.872 43.242 298.176 43.1432C298.176 40.4917 298.176 37.8402 298.176 35.1887C301.385 34.9162 304.48 34.4741 307.457 33.8629ZM306.131 49.7721C308.12 49.7721 310.108 49.7721 312.097 49.7721C312.21 53.3145 312.097 56.8496 311.766 60.3782C304.368 62.4808 301.497 59.8293 303.148 52.4236C304.076 51.3829 305.07 50.4986 306.131 49.7721Z" fill="#CDD0D0"/>
<path fill-rule="evenodd" clip-rule="evenodd" d="M339.275 34.5258C343.04 34.4157 346.792 34.5264 350.544 34.8572C351.943 35.0958 353.269 35.538 354.521 36.183C355.158 38.6555 355.376 41.1963 355.184 43.8061C354.203 43.9798 353.322 43.759 352.533 43.1432C350.451 38.456 346.911 36.7988 341.927 38.1716C336.544 41.7247 334.661 46.6963 336.292 53.0865C338.698 60.3397 343.67 63.1019 351.207 61.3725C352.506 60.7408 353.607 59.8565 354.521 58.721C355.151 58.4008 355.814 58.2907 356.51 58.3895C356.324 60.6367 355.662 62.736 354.521 64.6869C351.465 65.4916 348.37 66.1545 345.241 66.6755C344.797 67.3384 344.359 68.0013 343.915 68.6642C351.061 68.7093 353.381 71.9136 350.876 78.276C347.402 80.7465 343.531 81.5194 339.275 80.596C336.869 80.4164 336.206 79.3114 337.286 77.2816C339.686 77.5501 342.119 77.5501 344.578 77.2816C346.945 76.0858 347.163 74.5393 345.241 72.6415C343.252 72.4207 341.264 72.1993 339.275 71.9786C340.548 70.2253 341.317 68.3467 341.595 66.3441C329.584 62.8706 325.388 55.1367 329 43.1432C331.347 38.9386 334.774 36.0663 339.275 34.5258Z" fill="#CDD0D0"/>
<path fill-rule="evenodd" clip-rule="evenodd" d="M371.756 33.8629C374.408 34.3064 377.059 34.8592 379.711 35.5201C382.488 36.9864 384.039 39.3065 384.351 42.4804C383.701 48.3369 383.701 54.3029 384.351 60.3782C385.995 60.0806 387.321 60.522 388.328 61.7039C386.545 63.4838 384.557 65.0303 382.362 66.3441C380.241 65.6567 378.359 64.5524 376.728 63.0297C370.795 67.6752 365.273 67.2337 360.156 61.7039C357.922 54.7881 360.242 50.0372 367.116 47.452C370.165 46.7082 373.261 46.3768 376.396 46.4577C376.688 40.672 374.037 38.352 368.442 39.4974C366.924 40.3525 365.598 41.4576 364.465 42.8118C363.835 43.132 363.172 43.242 362.476 43.1433C362.476 40.4917 362.476 37.8402 362.476 35.1887C365.684 34.9162 368.78 34.4741 371.756 33.8629ZM370.431 49.7721C372.419 49.7721 374.408 49.7721 376.396 49.7721C376.509 53.3145 376.396 56.8497 376.065 60.3782C368.661 62.4736 365.79 59.822 367.448 52.4236C368.376 51.3829 369.37 50.4986 370.431 49.7721Z" fill="#CDD0D0"/>
<path fill-rule="evenodd" clip-rule="evenodd" d="M403.574 34.5258C416.322 32.3801 423.832 37.5724 426.112 50.1035C425.025 60.2496 419.391 65.6634 409.209 66.3441C398.702 66.0008 392.842 60.587 391.643 50.1035C392.551 42.4698 396.528 37.2774 403.574 34.5258ZM406.226 37.8402C412.835 36.9964 416.481 39.8693 417.164 46.4577C418.383 52.0816 417.164 57.0532 413.518 61.3725C409.54 63.5607 405.895 63.0079 402.58 59.7153C399.332 52.9612 399.551 46.3324 403.243 39.8289C404.337 39.2329 405.331 38.5701 406.226 37.8402Z" fill="#CDD0D0"/>
<path fill-rule="evenodd" clip-rule="evenodd" d="M490.412 34.5258C494.177 34.4157 497.929 34.5264 501.681 34.8572C506.785 36.3202 509.211 39.7453 508.973 45.1319C508.336 49.7628 508.23 54.4029 508.641 59.0524C510.08 59.9731 511.518 60.8568 512.95 61.7039C511.167 63.3757 509.291 64.9229 507.315 66.3441C505.188 65.666 503.305 64.5609 501.681 63.0297C495.357 67.7686 489.723 67.1057 484.777 61.041C482.723 54.0006 485.261 49.4711 492.401 47.452C495.171 46.4258 497.929 46.3151 500.687 47.1205C501.396 40.1251 498.413 37.805 491.738 40.1603C490.591 41.8718 489.046 42.8661 487.098 43.1432C486.985 40.7025 487.098 38.2724 487.429 35.8515C488.503 35.4545 489.497 35.0123 490.412 34.5258ZM495.052 49.772C497.041 49.772 499.029 49.772 501.018 49.772C501.131 53.3145 501.018 56.8496 500.687 60.3782C493.819 62.1295 490.949 59.478 492.069 52.4236C492.997 51.3829 493.992 50.4986 495.052 49.772Z" fill="#CDD0D0"/>
<path fill-rule="evenodd" clip-rule="evenodd" d="M577.913 34.5258C581.678 34.4157 585.43 34.5264 589.182 34.8572C591.548 35.3212 593.424 36.5363 594.816 38.5031C595.671 45.5091 596.109 52.5794 596.142 59.7153C597.653 60.1037 599.092 60.6566 600.451 61.3725C597.09 66.2984 593.225 66.8512 588.85 63.0297C582.188 67.7693 576.441 66.885 571.615 60.3782C570.482 53.9237 573.02 49.6149 579.238 47.452C582.235 46.4789 585.217 46.3688 588.187 47.1205C589.274 41.3581 586.954 38.8173 581.227 39.4974C579.331 40.1139 577.787 41.2189 576.587 42.8118C575.957 43.132 575.294 43.242 574.598 43.1432C574.485 40.7025 574.598 38.2724 574.93 35.8515C576.003 35.4545 576.998 35.0123 577.913 34.5258ZM582.553 49.772C584.541 49.772 586.53 49.772 588.519 49.772C588.737 53.335 588.512 56.8702 587.856 60.3782C580.604 62.2932 577.84 59.6417 579.57 52.4236C580.498 51.3829 581.492 50.4986 582.553 49.772Z" fill="#CDD0D0"/>
<path fill-rule="evenodd" clip-rule="evenodd" d="M608.405 34.5258C609.287 34.5258 610.175 34.5258 611.057 34.5258C610.944 43.5881 611.057 52.647 611.388 61.704C612.826 62.3728 613.602 63.4778 613.708 65.0184C609.512 65.0184 605.309 65.0184 601.113 65.0184C601.113 64.3555 601.113 63.6926 601.113 63.0297C602.187 63.1225 602.963 62.6804 603.433 61.704C604.103 54.7689 603.659 47.9193 602.108 41.1546C600.941 40.7443 600.172 39.9707 599.788 38.8345C602.658 37.4007 605.528 35.9649 608.405 34.5258Z" fill="#CDD0D0"/>
<path fill-rule="evenodd" clip-rule="evenodd" d="M652.818 34.5258C657.809 34.146 662.675 34.6988 667.401 36.183C668.177 36.9566 668.946 37.7295 669.721 38.5031C670.576 45.5091 671.014 52.5794 671.047 59.7153C672.558 60.1038 673.997 60.6566 675.356 61.3725C671.909 66.3315 667.932 66.8837 663.424 63.0297C656.895 67.7216 651.26 66.838 646.52 60.3782C645.208 54.8001 647.091 50.7121 652.155 48.1149C655.854 47.0775 659.612 46.3039 663.424 45.7948C662.933 39.693 659.838 37.8144 654.144 40.1603C652.997 41.8719 651.452 42.8662 649.503 43.1433C649.391 40.7025 649.503 38.2724 649.835 35.8516C650.909 35.4545 651.903 35.0124 652.818 34.5258ZM657.458 49.7721C659.447 49.7721 661.435 49.7721 663.424 49.7721C663.643 53.3351 663.417 56.8702 662.761 60.3782C655.503 62.286 652.738 59.6344 654.475 52.4236C655.403 51.3829 656.397 50.4986 657.458 49.7721Z" fill="#CDD0D0"/>
<path fill-rule="evenodd" clip-rule="evenodd" d="M179.521 35.1887C183.719 35.1887 187.917 35.1887 192.115 35.1887C192.115 35.8515 192.115 36.5144 192.115 37.1773C191.239 37.0646 190.465 37.2854 189.795 37.8402C189.353 44.2483 189.353 50.6557 189.795 57.0638C190.569 58.721 191.784 59.936 193.441 60.7096C196.358 61.3579 199.12 61.0265 201.727 59.7153C202.169 52.8657 202.169 46.0155 201.727 39.1659C200.604 38.0125 199.831 36.6868 199.407 35.1887C203.384 35.1887 207.362 35.1887 211.339 35.1887C211.482 36.6344 210.93 37.7388 209.682 38.5031C209.239 45.7948 209.239 53.0865 209.682 60.3782C210.607 61.7218 211.711 61.9426 212.996 61.041C213.455 61.3891 213.786 61.8312 213.99 62.3668C211.88 64.1964 209.45 65.5221 206.699 66.3441C205.269 65.0767 203.722 63.9716 202.058 63.0297C196.5 67.0023 190.865 67.2231 185.155 63.6926C183.288 61.6356 182.183 59.2049 181.841 56.4009C181.62 50.2142 181.398 44.0269 181.178 37.8402C180.047 37.3046 179.495 36.421 179.521 35.1887Z" fill="#CDD0D0"/>
<path fill-rule="evenodd" clip-rule="evenodd" d="M615.034 35.1887C619.455 35.1887 623.87 35.1887 628.291 35.1887C628.305 36.5807 627.867 37.7958 626.966 38.8345C628.139 41.2222 629.69 43.3209 631.606 45.1319C633.455 43.5032 634.781 41.5145 635.583 39.166C634.708 37.9516 634.045 36.6258 633.595 35.1887C637.791 35.1887 641.993 35.1887 646.189 35.1887C645.984 37.0752 644.877 38.0695 642.875 38.1716C639.62 41.5318 636.75 45.1776 634.257 49.1092C637.95 54.7801 641.927 60.0832 646.189 65.0183C641.768 65.0183 637.353 65.0183 632.932 65.0183C633.018 63.8914 633.455 62.8971 634.257 62.0354C632.852 59.6318 631.301 57.3117 629.617 55.0751C628.026 56.6952 626.594 58.4624 625.308 60.3782C625.229 61.9929 625.56 63.5394 626.303 65.0183C622.77 65.0183 619.23 65.0183 615.697 65.0183C615.697 64.3555 615.697 63.6926 615.697 63.0297C617.758 62.6379 619.415 61.5329 620.668 59.7153C622.77 56.843 624.864 53.9701 626.966 51.0978C622.949 45.6735 618.971 40.3704 615.034 35.1887Z" fill="#CDD0D0"/>
<path fill-rule="evenodd" clip-rule="evenodd" d="M154.331 20.6053C154.331 26.1291 154.331 31.6535 154.331 37.1773C158.308 37.1773 162.286 37.1773 166.263 37.1773C162.19 37.8336 157.992 38.0543 153.668 37.8402C153.452 31.9744 153.673 26.2292 154.331 20.6053Z" fill="#CDD0D0"/>
<path fill-rule="evenodd" clip-rule="evenodd" d="M24.4062 48.4464C30.2197 46.9748 33.5341 49.1841 34.3494 55.0752C32.2919 59.7485 28.7567 61.4057 23.7433 60.0468C20.7146 58.3624 19.7203 55.8209 20.7604 52.4237C21.6619 50.7512 22.8769 49.4254 24.4062 48.4464Z" fill="#CDD0D0"/>
<path fill-rule="evenodd" clip-rule="evenodd" d="M21.0916 67.6699C24.3212 67.243 27.0834 68.348 29.3777 70.9843C32.6092 76.9648 32.83 82.9308 30.0405 88.8821C23.9228 95.7986 17.7355 95.7986 11.4799 88.8821C9.05106 81.6183 10.4875 75.3209 15.7886 69.99C17.5505 69.0103 19.3184 68.2367 21.0916 67.6699Z" fill="#CDD0D0"/>
<path fill-rule="evenodd" clip-rule="evenodd" d="M140.411 76.9503C203.826 76.9503 267.24 76.9503 330.658 76.9503C330.658 77.8339 330.658 78.7182 330.658 79.6018C267.24 79.6018 203.826 79.6018 140.411 79.6018C140.411 78.7182 140.411 77.8339 140.411 76.9503Z" fill="#CDD0D0"/>
<path fill-rule="evenodd" clip-rule="evenodd" d="M355.184 76.9503C462.79 76.7295 570.402 76.9503 678.008 77.6131C678.226 78.0553 678.452 78.4968 678.671 78.9389C570.84 79.6018 463.015 79.8225 355.184 79.6018C355.184 78.7182 355.184 77.8339 355.184 76.9503Z" fill="#CDD0D0"/>
</svg>
