<svg width="524" height="96" viewBox="0 0 524 96" fill="none" xmlns="http://www.w3.org/2000/svg">
<path d="M109.402 74.9211C102.026 83.518 91.0148 89.0746 77.8895 91.5515C76.4743 89.7283 75.3616 87.6303 74.1445 85.602C87.4483 83.38 97.9901 78.3787 105.22 70.0658C106.78 71.5227 107.919 73.3865 109.402 74.9211Z" fill="#CDD0D0"/>
<path d="M104.014 68.421C96.8775 76.7571 86.3613 81.7086 72.9299 83.7428C71.8149 81.8002 70.5272 80.0372 69.5176 78.0031C83.0115 76.5786 93.2137 71.8785 100.036 63.7952C101.513 65.1826 102.644 66.9142 104.014 68.421Z" fill="#CDD0D0"/>
<path d="M98.9383 62.2514C93.5104 68.8477 84.4418 73.8537 73.4805 75.6943C72.3203 75.8821 69.411 76.5091 68.5243 76.2344C67.7987 76.0049 67.203 74.3289 66.7637 73.6057C66.1447 72.5753 65.4168 71.7882 65.1097 70.8447C78.8006 70.2165 88.7211 65.8109 95.074 57.8411C96.5889 59.0918 97.5532 60.8686 98.9383 62.2514Z" fill="#CDD0D0"/>
<path d="M5.72233 50.5772C9.03612 62.1969 16.2734 69.9105 25.3361 75.7917C23.5384 77.3077 21.3257 78.4019 19.382 79.7719C10.3378 73.5291 3.06922 65.5316 0 53.3161C1.98433 52.4723 3.72989 51.4106 5.72233 50.5772Z" fill="#CDD0D0"/>
<path d="M33.1702 70.8447C31.3957 72.2367 29.3383 73.3367 27.4328 74.5827C18.2217 68.8801 10.7329 61.469 7.69849 49.5827C9.50084 48.6242 11.4295 47.7954 13.211 46.8172C16.2478 58.4357 23.8328 65.4991 33.1702 70.8447Z" fill="#CDD0D0"/>
<path d="M40.6452 66.103C38.9274 67.422 36.8979 68.449 35.1396 69.7402C25.7383 64.5139 17.8717 57.7623 15.0888 45.9352C16.795 45.0172 18.7236 44.2812 20.3742 43.2948C23.1107 54.9145 30.9275 61.4586 40.6452 66.103Z" fill="#CDD0D0"/>
<path d="M104.332 43.8465C102.639 43.8882 100.882 44.4168 99.4947 44.3889C98.9337 34.4059 93.3064 28.898 87.9202 24.1168C89.0109 24.1608 90.4644 23.5489 91.6605 23.6798C93.1326 23.8421 95.1969 26.3955 96.174 27.4225C100.135 31.5348 103.487 37.2282 104.332 43.8465Z" fill="#CDD0D0"/>
<path d="M110.508 42.8485C109.041 43.1603 107.464 43.3411 105.875 43.5196C104.331 34.4 98.987 28.5258 93.6506 23.5627C94.681 23.5859 96.0394 22.9878 97.18 23.1257C98.6636 23.3065 100.59 25.9446 101.583 26.9866C105.546 31.1569 109.056 36.7726 110.508 42.8485Z" fill="#CDD0D0"/>
<path d="M116.346 42.0859C114.804 42.1913 113.532 42.5692 111.945 42.6283C109.676 34.1277 104.429 28.0263 99.0426 23.0203C100.048 23.1258 101.571 22.3724 102.677 22.581C103.262 22.6888 104.429 23.8977 105.109 24.5503C109.604 29.0498 114.401 35.4282 116.346 42.0859Z" fill="#CDD0D0"/>
<path d="M97.61 44.7216C95.8238 44.8746 94.1837 45.1911 92.4324 45.395C93.6262 35.8571 88.1519 29.1599 82.5258 24.9966C77.1095 21.0186 70.3718 18.2519 62.3614 17.5008C53.3566 16.6802 45.4946 18.1059 39.3272 21.4904C33.2653 24.7972 27.0156 30.4314 27.645 39.9903C28.1074 46.7894 32.3531 52.0145 36.7981 55.5242C41.497 59.2425 47.5323 61.7947 53.8736 63.1369C68.814 66.2745 83.7602 61.4377 90.0215 51.6726C91.3359 53.0333 92.575 54.4752 93.6517 56.0736C89.5938 61.4192 83.7057 65.2476 76.5624 67.3189C68.9067 69.5362 59.5101 69.6231 51.4442 67.8683C44.2116 66.2966 37.4623 63.1508 32.2778 58.7209C27.2033 54.3825 22.6424 48.9082 22.1394 40.6475C21.5807 31.6566 26.9484 25.4938 32.5003 21.5843C38.3768 17.4475 45.942 14.7017 55.1914 14.5301C66.8598 14.3169 76.3711 17.5924 83.7382 22.2554C91.0125 26.8534 97.1568 33.2572 97.61 44.7216Z" fill="#CDD0D0"/>
<path d="M42.859 15.5315C34.2483 18.2704 27.1397 22.5184 23.0146 29.7394C21.5785 29.1135 20.431 28.2187 19.0459 27.536C23.1525 21.1623 31.1906 16.2502 38.9912 13.7582C40.0147 13.4382 41.7463 15.5594 42.859 15.5315Z" fill="#CDD0D0"/>
<path d="M38.0059 13.1056C29.6189 15.9824 22.5972 20.2443 17.8381 26.7641C16.5376 26.1277 15.4272 25.292 14.1001 24.6754C19.1455 18.4396 26.2217 14.253 34.5902 11.3403C35.7504 11.9175 36.8272 12.5608 38.0059 13.1056Z" fill="#CDD0D0"/>
<path d="M79.539 15.9661C79.5343 16.949 79.3025 17.7094 79.2167 18.6111C72.0143 15.5292 63.451 13.2412 52.8884 13.8752C53.2524 13.0754 53.5074 12.1435 53.8736 11.338C63.8602 11.0285 72.4536 13.0325 79.539 15.9661Z" fill="#CDD0D0"/>
<path d="M33.3823 10.8988C24.9084 13.6237 18.2286 18.1592 12.7729 23.907C11.7448 23.0482 10.2867 22.6587 9.35828 21.6897C14.3782 16.5481 22.2912 11.8446 29.6246 9.25174C30.6666 8.88547 32.4389 10.3644 33.3823 10.8988Z" fill="#CDD0D0"/>
<path d="M55.1892 8.14133C64.8813 8.22826 72.8372 10.0376 79.9782 12.6687C79.9238 13.5623 79.8113 14.4096 79.6549 15.192C72.5138 12.3036 64.4351 10.3667 54.2017 10.5707C54.4798 9.72113 54.6606 8.75216 55.1892 8.14133Z" fill="#CDD0D0"/>
<path d="M56.1907 5.27609C65.5502 5.41866 73.2823 7.21405 80.4257 9.58435C80.3747 10.4108 80.1892 11.1027 80.0907 11.8955C72.8697 9.37688 65.0262 7.50151 55.304 7.49456C55.6042 6.74811 55.7641 5.89388 56.1907 5.27609Z" fill="#CDD0D0"/>
<path d="M247.946 69.5117H243.743V51.8035C243.743 51.8035 246.374 51.4836 249.283 51.4836C254.835 51.4836 258.604 54.0254 258.604 59.4846C258.604 65.9244 254.417 69.5117 247.946 69.5117ZM249.223 54.7718C248.383 54.7718 247.74 54.8263 247.74 54.8263V65.9569H248.78C252.279 65.9569 254.503 63.9691 254.503 59.7825C254.502 56.3702 252.309 54.7718 249.223 54.7718Z" fill="#CDD0D0"/>
<path d="M261.441 69.5119V51.6575H270.969V55.0061H265.397V58.867H270.349V62.0683H265.397V66.1679H271.417V69.5119H261.441Z" fill="#CDD0D0"/>
<path d="M284.477 69.5117H280.112V51.8093C280.112 51.8093 282.627 51.4836 285.126 51.4836C289.454 51.4836 291.472 52.9034 291.472 55.5913C291.472 57.8584 290.024 58.9491 288.158 59.6631V59.6863C290.88 59.9888 292.722 61.4771 292.722 63.9412C292.721 67.5877 289.755 69.5117 284.477 69.5117ZM284.856 54.4102C284.325 54.4102 283.94 54.474 283.94 54.474V58.9491C285.804 58.9491 287.437 58.4078 287.437 56.4931C287.437 54.9782 286.455 54.4102 284.856 54.4102ZM285.005 61.6509H283.94V66.3278H285.689C287.496 66.3278 288.685 65.5303 288.685 64.0282C288.685 62.3394 287.401 61.6509 285.005 61.6509Z" fill="#CDD0D0"/>
<path d="M304.646 69.9603L300.466 62.3568C300.072 62.4252 299.724 62.4252 299.367 62.4252H299.102V69.5117H295.181V51.8313C295.181 51.8313 297.702 51.4836 300.015 51.4836C304.146 51.4836 306.556 53.0541 306.556 56.4027C306.556 58.4728 305.393 59.9888 303.815 60.9694L308.24 68.4813L304.646 69.9603ZM299.99 54.3778C299.483 54.3778 299.101 54.4334 299.101 54.4334V59.866H299.338C301.141 59.866 302.806 58.9816 302.806 56.8153C302.807 55.006 301.538 54.3778 299.99 54.3778Z" fill="#CDD0D0"/>
<path d="M320.791 70.0206L319.275 64.5602H314.29L312.932 69.5117H308.921L314.851 51.6528H318.921L324.616 69.04L320.791 70.0206ZM316.842 55.4545H316.811L315.009 61.9731H318.616L316.842 55.4545Z" fill="#CDD0D0"/>
<path d="M338.907 55.7757C337.601 55.1892 336.534 54.8009 334.816 54.8009C331.728 54.8009 329.473 56.7562 329.473 60.347C329.473 64.318 331.108 66.2235 334.727 66.2235C335.442 66.2235 336.234 66.0775 336.234 66.0775V60.4664H340.18V68.8581C340.18 68.8581 337.635 69.8792 333.534 69.8792C328.67 69.8792 325.29 66.4032 325.29 60.8524C325.29 55.0083 329.298 51.3016 334.879 51.3016C337.101 51.3016 338.619 51.6772 340.215 52.3923L338.907 55.7757Z" fill="#CDD0D0"/>
<path d="M353.666 70.0206L352.145 64.5602H347.153L345.795 69.5117H341.785L347.721 51.6528H351.793L357.484 69.04L353.666 70.0206ZM349.709 55.4545H349.674L347.87 61.9731H351.493L349.709 55.4545Z" fill="#CDD0D0"/>
<path d="M370.263 69.8421L362.942 58.5643H362.912L363.033 69.5117H359.435V51.6528H362.644L369.732 62.5179H369.768L369.613 51.6528H373.207V69.2822L370.263 69.8421Z" fill="#CDD0D0"/>
<path d="M384.116 69.878C379.5 69.878 376.059 66.7589 376.059 60.8871C376.059 54.7046 379.88 51.3004 385.078 51.3004C387.309 51.3004 388.605 51.7165 390.206 52.4224L388.752 55.7756C387.69 55.2494 386.772 54.8275 385.143 54.8275C382.583 54.8275 380.212 56.6646 380.212 60.4431C380.212 64.5196 381.808 66.2837 385.162 66.2837C386.652 66.2837 387.781 65.812 388.931 65.2487L390.273 68.3863C388.159 69.4793 386.564 69.878 384.116 69.878ZM382.408 76.1346L381.842 74.6557C381.842 74.6557 383.477 74.1144 383.477 73.1987C383.477 72.7502 383.262 72.4476 382.764 72.4476C382.468 72.4476 382.169 72.5752 382.169 72.5752L381.603 71.0869C381.603 71.0869 382.502 70.5885 383.648 70.5885C385.043 70.5885 385.884 71.408 385.884 72.7502C385.883 75.3882 382.408 76.1346 382.408 76.1346Z" fill="#CDD0D0"/>
<path d="M402.994 70.0206L401.471 64.5602H396.492L395.12 69.5117H391.124L397.05 51.6528H401.124L406.822 69.04L402.994 70.0206ZM399.048 55.4545H399.017L397.201 61.9731H400.833L399.048 55.4545Z" fill="#CDD0D0"/>
<path d="M247.74 26.9333H243.743V44.797H247.74V26.9333Z" fill="#CDD0D0"/>
<path d="M262.365 45.125L255.043 33.8484H255.008L255.13 44.797H251.535V26.9333H254.734L261.835 37.7962H261.863L261.712 26.9333H265.304V44.5501L262.365 45.125Z" fill="#CDD0D0"/>
<path d="M273.646 45.1505C271.537 45.1505 269.847 44.7587 268.088 43.9323L269.359 40.5884C270.557 41.1772 271.919 41.6756 273.319 41.6756C274.95 41.6756 275.93 41.1216 275.93 39.9046C275.93 38.8336 275.183 38.4395 273.909 37.8831L271.647 36.9049C269.664 36.0414 268.183 34.7617 268.183 31.9742C268.183 28.5619 271.183 26.5764 274.442 26.5764C276.401 26.5764 277.672 26.9879 279.25 27.6439L277.941 30.9136C276.997 30.472 275.892 29.9609 274.652 29.9609C273.191 29.9609 272.071 30.4917 272.071 31.7064C272.071 32.7809 272.875 33.1286 273.842 33.5517L276.164 34.523C278.357 35.4479 279.879 36.8771 279.879 39.1303C279.877 42.5438 277.411 45.1505 273.646 45.1505Z" fill="#CDD0D0"/>
<path d="M289.182 30.2819V44.797H285.181V30.2819H280.365V26.9333H293.984V30.2819H289.182Z" fill="#CDD0D0"/>
<path d="M299.95 26.9333H295.946V44.797H299.95V26.9333Z" fill="#CDD0D0"/>
<path d="M310.721 30.2819V44.797H306.72V30.2819H301.912V26.9333H315.534V30.2819H310.721Z" fill="#CDD0D0"/>
<path d="M324.664 45.2073C319.893 45.2073 317.43 42.6933 317.43 37.3569V26.9345H321.463V37.2294C321.463 40.2221 322.507 41.3464 324.664 41.3464C326.773 41.3464 327.847 39.8721 327.847 37.5226V26.9345H331.731V37.4346C331.731 42.2714 329.096 45.2073 324.664 45.2073Z" fill="#CDD0D0"/>
<path d="M342.443 30.2819V44.797H338.435V30.2819H333.632V26.9333H347.247V30.2819H342.443Z" fill="#CDD0D0"/>
<path d="M355.909 45.1504C349.568 45.1504 347.397 40.3774 347.397 35.8245C347.397 31.2624 349.5 26.5775 355.909 26.5775C362.342 26.5775 364.399 31.2335 364.399 35.8245C364.398 40.3403 362.227 45.1504 355.909 45.1504ZM355.909 29.962C352.941 29.962 351.58 32.177 351.58 35.8245C351.58 39.544 352.965 41.7996 355.909 41.7996C358.817 41.7996 360.246 39.5139 360.246 35.8245C360.246 32.1572 358.899 29.962 355.909 29.962Z" fill="#CDD0D0"/>
<path d="M377.366 38.2888H377.098V44.7969H373.184V27.1049C373.184 27.1049 375.517 26.7549 378.011 26.7549C382.198 26.7549 384.573 28.505 384.573 31.7725C384.573 35.8037 381.251 38.2888 377.366 38.2888ZM378.043 29.6919C377.538 29.6919 377.097 29.751 377.097 29.751V35.3598H377.365C379.238 35.3598 380.775 34.2598 380.775 32.177C380.776 30.3445 379.649 29.6919 378.043 29.6919Z" fill="#CDD0D0"/>
<path d="M394.514 45.1504C388.159 45.1504 385.993 40.3774 385.993 35.8245C385.993 31.2624 388.102 26.5775 394.514 26.5775C400.949 26.5775 402.998 31.2335 402.998 35.8245C402.998 40.3403 400.83 45.1504 394.514 45.1504ZM394.514 29.962C391.543 29.962 390.179 32.177 390.179 35.8245C390.179 39.544 391.571 41.7996 394.514 41.7996C397.425 41.7996 398.842 39.5139 398.842 35.8245C398.842 32.1572 397.514 29.962 394.514 29.962Z" fill="#CDD0D0"/>
<path d="M405.838 44.797V26.9333H409.853V41.4449H416.087V44.797H405.838Z" fill="#CDD0D0"/>
<path d="M422.103 26.9333H418.102V44.797H422.103V26.9333Z" fill="#CDD0D0"/>
<path d="M432.876 30.2819V44.797H428.863V30.2819H424.066V26.9333H437.679V30.2819H432.876Z" fill="#CDD0D0"/>
<path d="M439.634 44.7969V26.9333H449.164V30.2819H443.588V34.145H448.537V37.3557H443.588V41.446H449.609V44.7969H439.634ZM442.88 25.8623L441.561 23.8421L447.233 19.9012L448.89 22.4523L442.88 25.8623Z" fill="#CDD0D0"/>
<path d="M459.164 45.1504C454.527 45.1504 451.081 42.0383 451.081 36.1595C451.081 29.9875 454.914 26.5775 460.105 26.5775C462.344 26.5775 463.634 26.9889 465.242 27.6994L463.796 31.0573C462.713 30.5195 461.806 30.1069 460.167 30.1069C457.621 30.1069 455.239 31.9463 455.239 35.7226C455.239 39.8152 456.849 41.5631 460.198 41.5631C461.686 41.5631 462.815 41.096 463.971 40.5234L465.304 43.668C463.194 44.7587 461.588 45.1504 459.164 45.1504Z" fill="#CDD0D0"/>
<path d="M478.38 45.125L471.06 33.8484H471.026L471.143 44.797H467.556V26.9333H470.758L477.85 37.7962H477.876L477.737 26.9333H481.325V44.5501L478.38 45.125Z" fill="#CDD0D0"/>
<path d="M489.128 26.9333H485.117V44.797H489.128V26.9333Z" fill="#CDD0D0"/>
<path d="M500.041 45.1504C495.408 45.1504 491.97 42.0383 491.97 36.1595C491.97 29.9875 495.796 26.5775 500.998 26.5775C503.221 26.5775 504.53 26.9889 506.128 27.6994L504.673 31.0573C503.607 30.5195 502.697 30.1069 501.057 30.1069C498.501 30.1069 496.133 31.9463 496.133 35.7226C496.133 39.8152 497.729 41.5631 501.077 41.5631C502.569 41.5631 503.7 41.096 504.854 40.5234L506.189 43.668C504.078 44.7587 502.482 45.1504 500.041 45.1504Z" fill="#CDD0D0"/>
<path d="M515.411 45.1504C509.063 45.1504 506.899 40.3774 506.899 35.8245C506.899 31.2624 509.004 26.5775 515.411 26.5775C521.851 26.5775 523.899 31.2335 523.899 35.8245C523.899 40.3403 521.744 45.1504 515.411 45.1504ZM515.411 29.962C512.447 29.962 511.085 32.177 511.085 35.8245C511.085 39.544 512.476 41.7996 515.411 41.7996C518.321 41.7996 519.751 39.5139 519.751 35.8245C519.752 32.1572 518.412 29.962 515.411 29.962Z" fill="#CDD0D0"/>
<path d="M228.406 38.3096C229.86 41.3765 230.605 44.9024 230.497 48.7459C230.399 52.5604 229.289 55.9449 227.88 58.6478C225.05 64.0294 220.272 68.0873 214.022 69.8746C206.199 72.1093 198.825 69.6729 194.21 66.2745C189.435 62.7567 185.893 57.622 185.095 50.3164C184.665 46.4011 185.002 42.0685 185.002 37.8726V0.265432C184.999 0.139093 184.99 0.0185451 185.095 0H195.088V28.9269C197.678 27.5001 200.593 26.0779 204.114 25.5123C207.92 24.8945 211.895 25.3524 215.165 26.4767C220.979 28.4888 225.839 32.9199 228.406 38.3096ZM220.334 49.1759C220.679 44.6231 218.863 41.2664 216.745 39.092C214.361 36.6684 210.831 35.0538 206.405 35.5105C201.136 36.039 197.313 39.5614 195.87 43.6611C192.781 52.4584 199.285 60.0387 206.651 60.5707C214.08 61.1062 219.822 55.793 220.334 49.1759Z" fill="#CDD0D0"/>
<path d="M178.776 33.4078C182.787 38.2122 185.475 46.2376 183.073 54.438C181.137 61.0517 176.368 66.2953 170.276 68.8974C167.11 70.2628 162.89 71.0545 158.621 70.57C154.596 70.1168 151.557 68.7746 148.623 66.9838V96H138.537V50.2329C138.537 46.0916 138.901 43.0745 139.938 40.1502C142.721 32.4145 149.71 25.9353 159.67 25.2549C168.505 24.6418 174.919 28.775 178.776 33.4078ZM170.274 56.8976C172.394 54.7591 174.203 51.4337 173.868 46.9898C173.636 43.763 172.018 40.8665 170.274 39.0954C167.996 36.7981 164.476 35.0584 159.932 35.5139C157.456 35.755 155.499 36.6023 153.882 37.7833C150.87 40.0053 148.608 43.3075 148.622 48.0481C148.631 53.9304 152.517 57.9153 156.078 59.5322C161.018 61.7576 166.789 60.4107 170.274 56.8976Z" fill="#CDD0D0"/>
<path d="M136.529 26.9495V70.5688C136.149 70.6836 135.797 70.3127 135.56 70.1295C131.045 66.8134 126.899 61.083 126.434 53.7357C125.891 45.009 126.846 36.2998 126.434 27.2196C126.429 27.084 126.424 26.9681 126.528 26.9495H136.529Z" fill="#CDD0D0"/>
<path d="M136.529 14.6774V24.8436H126.434V14.9451C126.429 14.8153 126.425 14.6867 126.528 14.6774H136.529Z" fill="#CDD0D0"/>
</svg>
