<svg width="262" height="97" viewBox="0 0 262 97" fill="none" xmlns="http://www.w3.org/2000/svg">
<path d="M0.592041 89.1346H2.02515V93.0044C2.02515 93.618 2.04319 94.0187 2.07568 94.1992C2.14066 94.4916 2.28505 94.7263 2.51608 94.9031C2.74711 95.08 3.06117 95.1667 3.46186 95.1667C3.86977 95.1667 4.17661 95.0836 4.38237 94.9176C4.58813 94.7515 4.71447 94.5458 4.75418 94.3003C4.7975 94.0584 4.81555 93.6541 4.81555 93.0874V89.1346H6.24865V92.8889C6.24865 93.7444 6.21256 94.3508 6.13314 94.7046C6.05733 95.062 5.91294 95.358 5.70718 95.6035C5.49781 95.8453 5.21985 96.0402 4.87331 96.1846C4.52315 96.329 4.06831 96.4012 3.50518 96.4012C2.82653 96.4012 2.31393 96.3218 1.96378 96.1666C1.61362 96.0078 1.33567 95.802 1.13352 95.5529C0.931365 95.3002 0.797801 95.0367 0.732825 94.7588C0.638969 94.3508 0.592041 93.7444 0.592041 92.9466V89.1346ZM7.77561 96.2785V89.1346H9.16901L12.0749 93.9068V89.1346H13.407V96.2785H11.9666L9.10765 91.6182V96.2785H7.77561ZM14.8762 96.2785V89.1346H16.3093V96.2785H14.8762ZM19.4859 96.2785L16.9482 89.1346H18.504L20.2981 94.423L22.0345 89.1346H23.5542L21.0129 96.2785H19.4859ZM24.287 96.2785V89.1346H29.5465V90.3439H25.7201V91.9286H29.283V93.1307H25.7201V95.0764H29.6837V96.2785H24.287ZM30.9038 96.2785V89.1346H33.9217C34.6797 89.1346 35.2284 89.1996 35.5714 89.3259C35.9179 89.4559 36.1922 89.6833 36.398 90.0118C36.6038 90.3403 36.7085 90.7157 36.7085 91.1381C36.7085 91.6723 36.5496 92.1164 36.2392 92.4665C35.9251 92.813 35.4558 93.0369 34.8349 93.1271C35.1454 93.3076 35.4017 93.5097 35.6038 93.7263C35.8024 93.9429 36.0731 94.3292 36.4161 94.8851L37.286 96.2785H35.5714L34.5353 94.7227C34.1671 94.1667 33.9144 93.8202 33.7809 93.6758C33.6437 93.5314 33.4993 93.4303 33.3477 93.3762C33.1961 93.322 32.9578 93.2968 32.6257 93.2968H32.3369V96.2785H30.9038ZM32.3369 92.1561H33.3982C34.0841 92.1561 34.5137 92.1272 34.6869 92.0694C34.8566 92.0117 34.9902 91.9106 35.0876 91.7662C35.1815 91.6218 35.232 91.4449 35.232 91.2283C35.232 90.9901 35.1671 90.7952 35.0407 90.6471C34.9144 90.4991 34.7339 90.4053 34.4992 90.3656C34.3837 90.3511 34.0372 90.3439 33.456 90.3439H32.3369V92.1561ZM37.6975 93.9538L39.0909 93.8166C39.174 94.2895 39.3436 94.636 39.5999 94.8562C39.8562 95.0764 40.2028 95.1883 40.6396 95.1883C41.098 95.1883 41.4482 95.0909 41.6792 94.8923C41.9138 94.6974 42.033 94.4664 42.033 94.2028C42.033 94.0332 41.9824 93.8924 41.885 93.7733C41.7875 93.6541 41.6142 93.5495 41.3687 93.4628C41.2027 93.4051 40.8201 93.3004 40.2208 93.1524C39.4555 92.9611 38.9141 92.7228 38.6072 92.4412C38.1704 92.0514 37.9502 91.5713 37.9502 91.0045C37.9502 90.6399 38.0549 90.3006 38.2607 89.9829C38.4628 89.6689 38.7588 89.427 39.1451 89.261C39.5313 89.0949 39.997 89.0119 40.5421 89.0119C41.4337 89.0119 42.1015 89.2068 42.5528 89.6003C43.004 89.9974 43.2386 90.5208 43.2603 91.1778L41.8308 91.2392C41.7694 90.871 41.6359 90.6074 41.4337 90.4486C41.2316 90.2862 40.932 90.2067 40.5277 90.2067C40.1125 90.2067 39.784 90.2934 39.5494 90.4667C39.3978 90.575 39.322 90.723 39.322 90.9071C39.322 91.0767 39.3942 91.2211 39.535 91.3402C39.7154 91.4955 40.1558 91.6543 40.8525 91.8203C41.5492 91.9864 42.0654 92.1561 42.3976 92.3329C42.7333 92.5098 42.9932 92.7517 43.1845 93.0585C43.3722 93.369 43.4661 93.748 43.4661 94.1992C43.4661 94.6071 43.3542 94.9934 43.1267 95.3472C42.8993 95.7045 42.5817 95.9717 42.1701 96.1449C41.755 96.3182 41.2388 96.4084 40.6251 96.4084C39.7263 96.4084 39.0368 96.1991 38.5567 95.7803C38.0766 95.3616 37.7878 94.7551 37.6975 93.9538ZM44.6284 96.2785V89.1346H46.0579V96.2785H44.6284ZM47.4224 89.1346H50.0396C50.628 89.1346 51.0792 89.1779 51.3897 89.2718C51.8048 89.3945 52.1622 89.6111 52.4582 89.9288C52.7578 90.2428 52.9816 90.6291 53.1368 91.0839C53.292 91.5424 53.3678 92.1055 53.3678 92.777C53.3678 93.3617 53.2956 93.8707 53.1513 94.2967C52.9744 94.8165 52.7217 95.2352 52.3932 95.5565C52.1441 95.802 51.8084 95.9933 51.386 96.1269C51.0684 96.2316 50.646 96.2785 50.1154 96.2785H47.4224V89.1346ZM48.8519 90.3439V95.0764H49.9241C50.3211 95.0764 50.6135 95.0548 50.7904 95.0078C51.0215 94.9501 51.2128 94.8526 51.368 94.7118C51.5232 94.571 51.646 94.34 51.7434 94.0187C51.8409 93.7011 51.8878 93.2643 51.8878 92.712C51.8878 92.1597 51.8409 91.7373 51.7434 91.4413C51.646 91.1417 51.5088 90.9107 51.3355 90.7482C51.1622 90.5822 50.942 90.4703 50.6749 90.4125C50.4728 90.3656 50.0829 90.3439 49.4945 90.3439H48.8519ZM60.9846 96.2785H59.4251L58.8043 94.6577H55.9669L55.3821 96.2785H53.8624L56.6275 89.1346H58.1437L60.9846 96.2785ZM58.3458 93.452L57.3675 90.8024L56.4109 93.452H58.3458ZM61.7391 89.1346H64.3598C64.9482 89.1346 65.3994 89.1779 65.7099 89.2718C66.125 89.3945 66.4824 89.6111 66.7784 89.9288C67.0744 90.2428 67.3018 90.6291 67.457 91.0839C67.6086 91.5424 67.6881 92.1055 67.6881 92.777C67.6881 93.3617 67.6159 93.8707 67.4715 94.2967C67.2946 94.8165 67.0383 95.2352 66.7098 95.5565C66.4607 95.802 66.125 95.9933 65.7027 96.1269C65.3886 96.2316 64.9662 96.2785 64.4356 96.2785H61.7391V89.1346ZM63.1722 90.3439V95.0764H64.2407C64.6414 95.0764 64.9302 95.0548 65.1106 95.0078C65.3417 94.9501 65.533 94.8526 65.6882 94.7118C65.8398 94.571 65.9662 94.34 66.06 94.0187C66.1575 93.7011 66.208 93.2643 66.208 92.712C66.208 92.1597 66.1575 91.7373 66.06 91.4413C65.9662 91.1417 65.829 90.9107 65.6557 90.7482C65.4788 90.5822 65.2586 90.4703 64.9915 90.4125C64.793 90.3656 64.3995 90.3439 63.8147 90.3439H63.1722ZM68.9046 96.2785V89.1346H74.1641V90.3439H70.3377V91.9286H73.9006V93.1307H70.3377V95.0764H74.3013V96.2785H68.9046ZM79.8677 96.2785V90.3439H77.7631V89.1346H83.4017V90.3439H81.3008V96.2785H79.8677ZM84.3258 96.2785V89.1346H89.5889V90.3439H85.7589V91.9286H89.3218V93.1307H85.7589V95.0764H89.7225V96.2785H84.3258ZM95.4802 93.6541L96.8664 94.0945C96.6534 94.8743 96.2996 95.4554 95.8051 95.8345C95.3105 96.2135 94.6824 96.4012 93.9207 96.4012C92.9786 96.4012 92.2025 96.0763 91.596 95.4302C90.9896 94.7804 90.6863 93.8924 90.6863 92.7697C90.6863 91.5821 90.9932 90.658 91.5996 89.9974C92.2097 89.3404 93.0111 89.0119 94.0074 89.0119C94.8737 89.0119 95.5813 89.2718 96.1227 89.788C96.444 90.0912 96.6859 90.5316 96.8483 91.1056L95.4297 91.4449C95.3466 91.0731 95.1734 90.7807 94.9026 90.5677C94.6391 90.3511 94.3142 90.2465 93.9352 90.2465C93.4081 90.2465 92.9822 90.4342 92.6537 90.8168C92.3252 91.1958 92.1628 91.8095 92.1628 92.6614C92.1628 93.5675 92.3252 94.2101 92.6465 94.5927C92.9714 94.9753 93.3901 95.1667 93.9027 95.1667C94.2853 95.1667 94.6138 95.0475 94.8882 94.8021C95.1625 94.5602 95.3575 94.174 95.4802 93.6541ZM98.1118 96.2785V89.1346H99.5052L102.411 93.9068V89.1346H103.743V96.2785H102.303L99.4438 91.6182V96.2785H98.1118ZM104.967 92.7517C104.967 92.0225 105.075 91.4124 105.292 90.9179C105.451 90.5533 105.671 90.2284 105.952 89.936C106.23 89.6508 106.537 89.4342 106.869 89.2935C107.31 89.1057 107.822 89.0119 108.4 89.0119C109.443 89.0119 110.281 89.3404 110.909 89.9938C111.537 90.6435 111.851 91.5532 111.851 92.7156C111.851 93.8707 111.537 94.7732 110.916 95.4266C110.291 96.0763 109.457 96.4012 108.418 96.4012C107.364 96.4012 106.523 96.0763 105.902 95.4302C105.277 94.7804 104.967 93.8888 104.967 92.7517ZM106.443 92.7011C106.443 93.5097 106.627 94.127 106.999 94.5422C107.371 94.9609 107.84 95.1667 108.414 95.1667C108.985 95.1667 109.454 94.9609 109.818 94.5458C110.183 94.1306 110.367 93.5097 110.367 92.6831C110.367 91.8637 110.19 91.2536 109.833 90.8493C109.479 90.445 109.003 90.2465 108.414 90.2465C107.822 90.2465 107.346 90.4486 106.985 90.8565C106.624 91.2644 106.443 91.8781 106.443 92.7011ZM113.006 96.2785V89.1924H114.439V95.0764H118.002V96.2785H113.006ZM118.735 92.7517C118.735 92.0225 118.843 91.4124 119.056 90.9179C119.218 90.5533 119.439 90.2284 119.72 89.936C119.998 89.6508 120.305 89.4342 120.637 89.2935C121.078 89.1057 121.587 89.0119 122.164 89.0119C123.211 89.0119 124.048 89.3404 124.677 89.9938C125.305 90.6435 125.619 91.5532 125.619 92.7156C125.619 93.8707 125.305 94.7732 124.68 95.4266C124.059 96.0763 123.225 96.4012 122.186 96.4012C121.128 96.4012 120.291 96.0763 119.666 95.4302C119.045 94.7804 118.735 93.8888 118.735 92.7517ZM120.208 92.7011C120.208 93.5097 120.395 94.127 120.767 94.5422C121.139 94.9609 121.608 95.1667 122.182 95.1667C122.749 95.1667 123.222 94.9609 123.586 94.5458C123.951 94.1306 124.135 93.5097 124.135 92.6831C124.135 91.8637 123.958 91.2536 123.601 90.8493C123.243 90.445 122.771 90.2465 122.182 90.2465C121.59 90.2465 121.114 90.4486 120.753 90.8565C120.392 91.2644 120.208 91.8781 120.208 92.7011ZM121.294 88.7231L121.962 87.2683H123.485L122.157 88.7231H121.294ZM130.037 93.6541V92.4485H133.124V95.2966C132.824 95.589 132.391 95.8453 131.82 96.0691C131.25 96.2893 130.672 96.4012 130.091 96.4012C129.348 96.4012 128.702 96.246 128.149 95.9319C127.597 95.6179 127.182 95.1703 126.904 94.5855C126.626 94.0007 126.489 93.369 126.489 92.6831C126.489 91.9395 126.644 91.2789 126.951 90.6977C127.265 90.1201 127.716 89.6761 128.315 89.3693C128.77 89.131 129.333 89.0119 130.012 89.0119C130.893 89.0119 131.582 89.1996 132.077 89.5714C132.571 89.9432 132.893 90.4558 133.033 91.1128L131.611 91.3836C131.51 91.0298 131.322 90.7518 131.044 90.5497C130.77 90.3475 130.427 90.2465 130.012 90.2465C129.387 90.2465 128.889 90.445 128.517 90.8457C128.149 91.2464 127.965 91.8384 127.965 92.6253C127.965 93.47 128.153 94.109 128.528 94.5313C128.9 94.9573 129.391 95.1667 129.997 95.1667C130.297 95.1667 130.6 95.1089 130.9 94.9898C131.203 94.8707 131.463 94.7263 131.676 94.5602V93.6541H130.037ZM134.401 96.2785V89.1346H135.835V96.2785H134.401ZM141.744 93.6541L143.13 94.0945C142.917 94.8743 142.563 95.4554 142.069 95.8345C141.574 96.2135 140.946 96.4012 140.181 96.4012C139.242 96.4012 138.466 96.0763 137.86 95.4302C137.253 94.7804 136.95 93.8924 136.95 92.7697C136.95 91.5821 137.253 90.658 137.863 89.9974C138.473 89.3404 139.275 89.0119 140.271 89.0119C141.137 89.0119 141.841 89.2718 142.386 89.788C142.708 90.0912 142.95 90.5316 143.112 91.1056L141.693 91.4449C141.61 91.0731 141.437 90.7807 141.166 90.5677C140.903 90.3511 140.578 90.2465 140.195 90.2465C139.672 90.2465 139.246 90.4342 138.917 90.8168C138.589 91.1958 138.426 91.8095 138.426 92.6614C138.426 93.5675 138.585 94.2101 138.91 94.5927C139.231 94.9753 139.654 95.1667 140.166 95.1667C140.549 95.1667 140.877 95.0475 141.152 94.8021C141.426 94.5602 141.621 94.174 141.744 93.6541ZM150.761 96.2785H149.202L148.581 94.6577H145.744L145.159 96.2785H143.639L146.404 89.1346H147.92L150.761 96.2785ZM148.122 93.452L147.144 90.8024L146.184 93.452H148.122ZM153.916 96.2785V89.1346H158.779V90.3439H155.349V92.0333H158.309V93.2426H155.349V96.2785H153.916ZM159.963 96.2785V89.1346H165.222V90.3439H161.396V91.9286H164.955V93.1307H161.396V95.0764H165.359V96.2785H159.963ZM166.569 89.1346H169.189C169.778 89.1346 170.229 89.1779 170.54 89.2718C170.955 89.3945 171.312 89.6111 171.608 89.9288C171.904 90.2428 172.131 90.6291 172.287 91.0839C172.442 91.5424 172.518 92.1055 172.518 92.777C172.518 93.3617 172.446 93.8707 172.298 94.2967C172.124 94.8165 171.872 95.2352 171.539 95.5565C171.29 95.802 170.955 95.9933 170.532 96.1269C170.218 96.2316 169.796 96.2785 169.265 96.2785H166.569V89.1346ZM168.002 90.3439V95.0764H169.07C169.471 95.0764 169.76 95.0548 169.94 95.0078C170.171 94.9501 170.363 94.8526 170.518 94.7118C170.669 94.571 170.792 94.34 170.893 94.0187C170.987 93.7011 171.038 93.2643 171.038 92.712C171.038 92.1597 170.987 91.7373 170.893 91.4413C170.792 91.1417 170.659 90.9107 170.485 90.7482C170.308 90.5822 170.088 90.4703 169.821 90.4125C169.623 90.3656 169.229 90.3439 168.644 90.3439H168.002ZM173.734 96.2785V89.1346H178.994V90.3439H175.167V91.9286H178.727V93.1307H175.167V95.0764H179.131V96.2785H173.734ZM180.347 96.2785V89.1346H183.365C184.123 89.1346 184.676 89.1996 185.019 89.3259C185.362 89.4559 185.639 89.6833 185.845 90.0118C186.051 90.3403 186.152 90.7157 186.152 91.1381C186.152 91.6723 185.997 92.1164 185.686 92.4665C185.372 92.813 184.903 93.0369 184.279 93.1271C184.589 93.3076 184.845 93.5097 185.047 93.7263C185.25 93.9429 185.52 94.3292 185.863 94.8851L186.73 96.2785H185.015L183.983 94.7227C183.614 94.1667 183.362 93.8202 183.224 93.6758C183.091 93.5314 182.947 93.4303 182.795 93.3762C182.643 93.322 182.405 93.2968 182.073 93.2968H181.784V96.2785H180.347ZM181.784 92.1561H182.842C183.531 92.1561 183.961 92.1272 184.131 92.0694C184.3 92.0117 184.434 91.9106 184.535 91.7662C184.629 91.6218 184.679 91.4449 184.679 91.2283C184.679 90.9901 184.614 90.7952 184.488 90.6471C184.358 90.4991 184.181 90.4053 183.946 90.3656C183.831 90.3511 183.481 90.3439 182.9 90.3439H181.784V92.1561ZM193.906 96.2785H192.347L191.726 94.6577H188.888L188.304 96.2785H186.784L189.549 89.1346H191.061L193.906 96.2785ZM191.267 93.452L190.289 90.8024L189.329 93.452H191.267ZM194.704 96.2785V89.1924H196.133V95.0764H199.696V96.2785H194.704ZM203.292 89.1346H205.909C206.501 89.1346 206.948 89.1779 207.259 89.2718C207.678 89.3945 208.031 89.6111 208.331 89.9288C208.627 90.2428 208.851 90.6291 209.006 91.0839C209.161 91.5424 209.241 92.1055 209.241 92.777C209.241 93.3617 209.168 93.8707 209.02 94.2967C208.843 94.8165 208.591 95.2352 208.262 95.5565C208.013 95.802 207.678 95.9933 207.255 96.1269C206.941 96.2316 206.515 96.2785 205.984 96.2785H203.292V89.1346ZM204.725 90.3439V95.0764H205.793C206.194 95.0764 206.483 95.0548 206.66 95.0078C206.891 94.9501 207.085 94.8526 207.241 94.7118C207.392 94.571 207.515 94.34 207.613 94.0187C207.71 93.7011 207.761 93.2643 207.761 92.712C207.761 92.1597 207.71 91.7373 207.613 91.4413C207.515 91.1417 207.382 90.9107 207.208 90.7482C207.031 90.5822 206.811 90.4703 206.544 90.4125C206.342 90.3656 205.952 90.3439 205.367 90.3439H204.725ZM210.165 92.7517C210.165 92.0225 210.273 91.4124 210.49 90.9179C210.648 90.5533 210.869 90.2284 211.15 89.936C211.428 89.6508 211.735 89.4342 212.067 89.2935C212.507 89.1057 213.02 89.0119 213.598 89.0119C214.641 89.0119 215.478 89.3404 216.106 89.9938C216.735 90.6435 217.049 91.5532 217.049 92.7156C217.049 93.8707 216.735 94.7732 216.114 95.4266C215.489 96.0763 214.655 96.4012 213.616 96.4012C212.562 96.4012 211.721 96.0763 211.1 95.4302C210.475 94.7804 210.165 93.8888 210.165 92.7517ZM211.641 92.7011C211.641 93.5097 211.825 94.127 212.197 94.5422C212.569 94.9609 213.038 95.1667 213.612 95.1667C214.182 95.1667 214.652 94.9609 215.016 94.5458C215.381 94.1306 215.565 93.5097 215.565 92.6831C215.565 91.8637 215.388 91.2536 215.031 90.8493C214.677 90.445 214.2 90.2465 213.612 90.2465C213.02 90.2465 212.544 90.4486 212.183 90.8565C211.822 91.2644 211.641 91.8781 211.641 92.7011ZM220.922 96.2785V89.1346H223.221C224.091 89.1346 224.658 89.1707 224.922 89.2429C225.33 89.3476 225.673 89.5822 225.947 89.9396C226.221 90.3006 226.358 90.7663 226.358 91.333C226.358 91.7698 226.279 92.1416 226.12 92.4376C225.961 92.7372 225.763 92.9719 225.517 93.1452C225.272 93.3148 225.026 93.4267 224.774 93.4809C224.431 93.5495 223.936 93.5856 223.286 93.5856H222.351V96.2785H220.922ZM222.351 90.3439V92.369H223.135C223.702 92.369 224.081 92.3329 224.272 92.2571C224.46 92.1849 224.608 92.0658 224.716 91.907C224.824 91.7481 224.878 91.564 224.878 91.3511C224.878 91.0912 224.803 90.8782 224.651 90.7085C224.503 90.5389 224.308 90.4342 224.077 90.3908C223.904 90.3584 223.561 90.3439 223.045 90.3439H222.351ZM233.199 96.2785H231.636L231.019 94.6577H228.181L227.597 96.2785H226.077L228.842 89.1346H230.354L233.199 96.2785ZM230.56 93.452L229.582 90.8024L228.622 93.452H230.56ZM233.961 96.2785V89.1346H236.979C237.737 89.1346 238.285 89.1996 238.632 89.3259C238.975 89.4559 239.249 89.6833 239.455 90.0118C239.664 90.3403 239.765 90.7157 239.765 91.1381C239.765 91.6723 239.607 92.1164 239.296 92.4665C238.986 92.813 238.516 93.0369 237.892 93.1271C238.202 93.3076 238.459 93.5097 238.661 93.7263C238.863 93.9429 239.134 94.3292 239.473 94.8851L240.343 96.2785H238.628L237.592 94.7227C237.224 94.1667 236.975 93.8202 236.838 93.6758C236.701 93.5314 236.56 93.4303 236.405 93.3762C236.253 93.322 236.015 93.2968 235.683 93.2968H235.394V96.2785H233.961ZM235.394 92.1561H236.455C237.141 92.1561 237.571 92.1272 237.744 92.0694C237.913 92.0117 238.047 91.9106 238.145 91.7662C238.242 91.6218 238.289 91.4449 238.289 91.2283C238.289 90.9901 238.224 90.7952 238.098 90.6471C237.971 90.4991 237.791 90.4053 237.56 90.3656C237.441 90.3511 237.094 90.3439 236.513 90.3439H235.394V92.1561ZM247.516 96.2785H245.956L245.335 94.6577H242.498L241.913 96.2785H240.393L243.159 89.1346H244.675L247.516 96.2785ZM244.877 93.452L243.899 90.8024L242.942 93.452H244.877ZM248.288 96.2785V89.1346H249.685L252.587 93.9068V89.1346H253.92V96.2785H252.483L249.62 91.6182V96.2785H248.288ZM261.836 96.2785H260.276L259.656 94.6577H256.818L256.233 96.2785H254.714L257.479 89.1346H258.991L261.836 96.2785ZM259.197 93.452L258.219 90.8024L257.259 93.452H259.197ZM257.396 88.7231L258.064 87.2683H259.587L258.255 88.7231H257.396Z" fill="#CDD0D0"/>
<path fill-rule="evenodd" clip-rule="evenodd" d="M107.064 83.2109V16.8982H169.244V29.955H123.673V83.2109H107.064Z" fill="#CDD0D0"/>
<path d="M217.088 83.0232V33.6839H238.065C243.339 33.6839 247.165 34.1315 249.555 35.0159C251.945 35.9004 253.862 37.4742 255.298 39.7376C256.735 42.0118 257.446 44.5965 257.446 47.5132C257.446 51.2133 256.356 54.2816 254.183 56.693C252.013 59.0936 248.75 60.6241 244.418 61.2414C246.577 62.5048 248.36 63.8838 249.761 65.3891C251.162 66.8944 253.046 69.5621 255.425 73.3993L261.457 83.0232H249.541L242.339 72.2839C239.776 68.4466 238.033 66.0317 237.09 65.0353C236.148 64.0354 235.148 63.3568 234.091 62.9777C233.033 62.6095 231.369 62.4254 229.069 62.4254H227.059V83.0232H217.088ZM50.9637 0.408447V48.1702C50.9637 62.2738 46.4586 71.5186 33.7736 71.5186C21.0923 71.5186 16.5908 62.2738 16.5908 48.1702V0.408447H0V53.2673C0 75.4281 12.5586 84.5573 33.7736 84.5573C54.9886 84.5573 67.5509 75.4281 67.5509 53.2673V13.4436H86.7263V83.1315H103.321V13.4436H169.345V0.408447H50.9637ZM127.33 33.8572V83.2109H142.939V46.9031H169.244V33.8572H127.33ZM176.355 83.0268V33.6839H192.336C198.389 33.6839 202.342 33.9366 204.18 34.4275C207.006 35.1639 209.385 36.7739 211.291 39.2539C213.197 41.7339 214.15 44.9394 214.15 48.8597C214.15 51.8919 213.601 54.4405 212.497 56.4981C211.396 58.5665 210.006 60.1873 208.306 61.3677C206.616 62.5409 204.894 63.3207 203.147 63.7033C200.768 64.1726 197.321 64.4145 192.805 64.4145H186.314V83.0268H176.355ZM186.314 42.0335V56.0288H191.762C195.689 56.0288 198.321 55.7725 199.642 55.2563C200.963 54.7401 201.996 53.9351 202.754 52.8341C203.501 51.7295 203.88 50.4552 203.88 48.9968C203.88 47.2028 203.353 45.7227 202.295 44.5495C201.248 43.3908 199.906 42.6544 198.299 42.3692C197.104 42.1382 194.715 42.0335 191.13 42.0335H186.314ZM227.059 54.5452H234.423C239.202 54.5452 242.191 54.3502 243.386 53.9495C244.566 53.5452 245.498 52.8449 246.176 51.8558C246.844 50.8703 247.187 49.6394 247.187 48.1594C247.187 46.4916 246.74 45.1596 245.855 44.138C244.971 43.1128 243.718 42.4703 242.097 42.1959C241.296 42.0912 238.87 42.0335 234.827 42.0335H227.059V54.5452Z" fill="#CDD0D0"/>
</svg>
